<?xml version="1.0" standalone="no"?><!DOCTYPE svg PUBLIC "-//W3C//DTD SVG 1.1//EN" "http://www.w3.org/Graphics/SVG/1.1/DTD/svg11.dtd"><svg t="1667370200873" class="icon" viewBox="0 0 1024 1024" version="1.1" xmlns="http://www.w3.org/2000/svg" p-id="4654" xmlns:xlink="http://www.w3.org/1999/xlink" width="200" height="200"><path d="M914.635 280.161c0-20.135-7.204-50.37-41.524-80.065-21.817-18.877-52.048-35.464-89.852-49.299-73.03-26.726-169.365-41.445-271.258-41.445-101.894 0-198.229 14.719-271.259 41.445-37.804 13.835-68.035 30.422-89.852 49.299-34.32 29.695-41.524 59.93-41.524 80.065 0 2.472 0.11 5.097 0.364 7.853a37.331 37.331 0 0 0-0.364 5.147v136.843c0 20.135 7.204 50.37 41.524 80.065 21.817 18.877 52.048 35.464 89.852 49.298 73.03 26.727 169.365 41.446 271.259 41.446 101.893 0 198.228-14.719 271.258-41.446 37.804-13.834 68.035-30.421 89.852-49.298 34.32-29.695 41.524-59.93 41.524-80.065V293.161c0-1.748-0.13-3.464-0.364-5.147 0.253-2.756 0.364-5.381 0.364-7.853zM757.827 489.875c-65.088 23.82-152.391 36.938-245.827 36.938s-180.739-13.118-245.827-36.938c-56.895-20.821-82.808-45.631-82.808-59.871v-46.902c16.536 9.652 35.705 18.492 57.376 26.423C313.772 436.251 410.107 450.97 512 450.97s198.228-14.719 271.258-41.445c21.671-7.931 40.84-16.771 57.376-26.423v46.902c0.001 14.241-25.913 39.05-82.807 59.871z" p-id="4655" fill="#ffffff"></path><path d="M877.635 556.839c-20.435 0-37 16.565-37 37 0 14.24-25.913 39.05-82.808 59.871-65.088 23.82-152.391 36.938-245.827 36.938S331.261 677.53 266.173 653.71c-56.895-20.821-82.808-45.631-82.808-59.871 0-20.435-16.565-37-37-37s-37 16.565-37 37v150c0 20.135 7.204 50.371 41.524 80.065 21.817 18.877 52.048 35.464 89.852 49.299 73.03 26.727 169.365 41.445 271.259 41.445 101.893 0 198.228-14.719 271.258-41.445 37.804-13.835 68.035-30.421 89.852-49.299 34.32-29.694 41.524-59.93 41.524-80.065v-150c0.001-20.435-16.565-37-36.999-37z" p-id="4656" fill="#ffffff"></path></svg>