<svg xmlns="http://www.w3.org/2000/svg" xmlns:xlink="http://www.w3.org/1999/xlink" viewBox="0 0 267.18 293.74"><defs><style>.cls-1{fill:#231815;}.cls-2{fill:#c24a26;}.cls-3{fill:url(#未命名的渐变_5);}.cls-4{fill:#80acdb;}.cls-5{fill:#769dc9;}.cls-6{fill:#a8cae3;}.cls-7{fill:#d1dae7;}.cls-8{fill:#c9d6e6;}.cls-9{fill:url(#未命名的渐变_6);}.cls-10{opacity:0.53;}.cls-11,.cls-21{fill:#fff;}.cls-12,.cls-14{opacity:0.11;}.cls-13{fill:#2976bc;}.cls-14{fill:#4ba2da;}.cls-14,.cls-21,.cls-22{isolation:isolate;}.cls-15{fill:#e95619;}.cls-16,.cls-17,.cls-18{fill:#fbfdff;}.cls-17{fill-opacity:0.57;}.cls-18{fill-opacity:0.71;}.cls-19{fill:#e5b537;}.cls-20{fill:#291205;}.cls-21{opacity:0.54;}.cls-22{fill:#001829;opacity:0.03;}.cls-23{fill:#f0f0f0;}.cls-24{fill:#dbdcdc;}.cls-25{fill:#090909;}.cls-26{fill:none;stroke:#090909;stroke-miterlimit:10;}.cls-27{fill:#dfe0e0;}.cls-28{fill:#ee8031;}.cls-29{fill:#f6d46b;}.cls-30{fill:#f3ddea;}.cls-31{opacity:0.78;}.cls-32{fill:url(#未命名的渐变_5-2);}.cls-33{fill:url(#未命名的渐变_6-2);}.cls-34{fill:url(#未命名的渐变_5-3);}.cls-35{fill:url(#未命名的渐变_6-3);}.cls-36{fill:#cebf93;}.cls-37{fill:#e48f45;}.cls-38{fill:#f4e3bf;}.cls-39{fill:#e6c89c;}.cls-40{fill:#b57122;}.cls-41{fill:#5e3500;}.cls-42{fill:#fdf1e7;}.cls-43{fill:#ded5da;}.cls-44{fill:#faeff5;}.cls-45{fill:#d6733d;}.cls-46{fill:#f2e753;}.cls-47{fill:#eecb4f;}.cls-48{fill:#769ab2;}.cls-49{fill:#738a9c;}.cls-50{fill:#9ebed6;}.cls-51{fill:#8db8d5;}.cls-52{fill:#6e90a7;}</style><radialGradient id="未命名的渐变_5" cx="-274.43" cy="913.04" r="12.15" gradientTransform="matrix(-0.3, 0.95, 0.81, 0.26, -572.49, 172.06)" gradientUnits="userSpaceOnUse"><stop offset="0.12" stop-color="#fff"/><stop offset="0.62" stop-color="#fdfeff"/><stop offset="0.67" stop-color="#fcfdff"/><stop offset="0.74" stop-color="#fafcff"/><stop offset="0.92" stop-color="#eff8fd"/><stop offset="0.93" stop-color="#e5f4fc"/><stop offset="0.94" stop-color="#c9e9f9"/><stop offset="0.96" stop-color="#a7dbf6"/></radialGradient><linearGradient id="未命名的渐变_6" x1="-434.52" y1="922.68" x2="-417.22" y2="948.18" gradientTransform="matrix(0.26, 0.96, 0.96, -0.26, -543.14, 802.68)" gradientUnits="userSpaceOnUse"><stop offset="0.06" stop-color="#1e58a6"/><stop offset="0.15" stop-color="#195caa"/><stop offset="0.21" stop-color="#1263af"/><stop offset="0.25" stop-color="#0a69b3"/><stop offset="0.27" stop-color="#036eb7"/><stop offset="0.28" stop-color="#0c73b9"/><stop offset="0.3" stop-color="#2380c0"/><stop offset="0.33" stop-color="#4996cb"/><stop offset="0.35" stop-color="#7eb5da"/><stop offset="0.38" stop-color="#c1dbed"/><stop offset="0.41" stop-color="#fff"/><stop offset="0.62" stop-color="#daf0fb"/><stop offset="0.81" stop-color="#bee4f8"/><stop offset="0.96" stop-color="#a7dbf6"/></linearGradient><radialGradient id="未命名的渐变_5-2" cx="299.7" cy="488.37" r="16.26" gradientTransform="matrix(0.65, 0.76, 0.65, -0.55, -315.69, 72.46)" xlink:href="#未命名的渐变_5"/><linearGradient id="未命名的渐变_6-2" x1="124.27" y1="525.78" x2="147.41" y2="559.89" gradientTransform="matrix(0.96, 0.28, 0.28, -0.96, -92.46, 516.07)" xlink:href="#未命名的渐变_6"/><radialGradient id="未命名的渐变_5-3" cx="236.18" cy="538.4" r="21.18" gradientTransform="matrix(0.65, 0.76, 0.65, -0.55, -353.72, 136.63)" xlink:href="#未命名的渐变_5"/><linearGradient id="未命名的渐变_6-3" x1="70.73" y1="517.42" x2="100.89" y2="561.87" gradientTransform="matrix(0.96, 0.28, 0.28, -0.96, -92.46, 516.07)" xlink:href="#未命名的渐变_6"/></defs><g id="图层_2" data-name="图层 2"><g id="图层_1-2" data-name="图层 1"><g id="图层_2-2" data-name="图层 2"><g id="图层_1-2-2" data-name="图层 1-2"><path class="cls-1" d="M258.09,160s1.52-1.53,2.63,1.19,2.38,7.33.47,11.5l-.21.3a.64.64,0,0,0-.1.35v.45a.4.4,0,0,1-.26.4,4.26,4.26,0,0,1-2,.37,2.3,2.3,0,0,1-1.23-1s-3.13-8.36-3.15-8.44C251.88,158.3,258.09,160,258.09,160Z"/><path class="cls-2" d="M257.89,160.36s1.48-1.45,2.56,1.11,2.29,7,.42,10.92l-.21.29a.56.56,0,0,0-.1.33v.42a.4.4,0,0,1-.26.38,4.52,4.52,0,0,1-1.93.37,2.37,2.37,0,0,1-1.2-.94l-3-8C251.88,158.77,257.89,160.36,257.89,160.36Z"/><path class="cls-3" d="M258.58,155.92A24.21,24.21,0,0,1,247,154.13c-6.32-2.57-8.16-4.14-8.16-4.14a36.17,36.17,0,0,1,1.73-5.88c.89-1.92,5.44-8.94,13-7.12s7,10.15,6.94,11.46A42.92,42.92,0,0,1,258.58,155.92Z"/><path class="cls-1" d="M256.56,160.51a3.12,3.12,0,0,1-.63,3,.18.18,0,0,0,0,.2,2,2,0,0,1-.1,2,.19.19,0,0,0,0,.2c.44.79,3,5.68,3,10.16.05,1.56,0,2.78,0,3.05a.12.12,0,0,0,0,.1,15.39,15.39,0,0,0,2,2.71,17.35,17.35,0,0,0,1.86,1.49,1.06,1.06,0,0,1,.37,1.21,1.38,1.38,0,0,1-.37.39,1.89,1.89,0,0,1-1.91,0,22.64,22.64,0,0,1-2.93-1.81c-.5-.37-.32-.37-.32-.37a6.69,6.69,0,0,1-2.5,2.59c-3.58,2-5.76,1.82-6,1.79h0a6.83,6.83,0,0,1-4.35-1.17s-.64-.46-.29.12a5.06,5.06,0,0,1,.56,3.84,4.51,4.51,0,0,1-1.74,2.35,2.75,2.75,0,0,1-.86.42,6.63,6.63,0,0,1-1.38.34,1,1,0,0,1-.85-.31.17.17,0,0,0-.17-.11,1.71,1.71,0,0,1-1.17-.19c-.4-.33-1.14-1.48-.74-2.2a.15.15,0,0,0,0-.18c-.2-.29-.78-1.24-.28-1.88a3.08,3.08,0,0,1,.63-.67.17.17,0,0,0,.05-.24.11.11,0,0,0-.07-.06c-.31-.15-.66-.37-.67-.62a2.13,2.13,0,0,1,.37-1.46l.3-.23a.18.18,0,0,0,0-.24.88.88,0,0,1-.15-.63.15.15,0,0,0,0-.13,5.62,5.62,0,0,1-.8-1.93c-.06-.78-.37-2.95.19-3.64l.21-.29a.18.18,0,0,0,0-.16,42.25,42.25,0,0,1-2.15-6.76c-.48-2.65-.93-4.87-1-5.05V166a.17.17,0,0,0-.17-.17c-.28,0-.87-.18-1.32-1.56a8.73,8.73,0,0,1-.29-3.66.17.17,0,0,0-.12-.19c-.4-.13-1.51-.54-1.69-1.28a8,8,0,0,1,.19-2.73.16.16,0,0,0,0-.15c-.19-.21-.74-.85-.53-1.32s1-1.29,1.71-1.11l.43.07a.68.68,0,0,1,0-1l0,0a1.57,1.57,0,0,1,1.69-.58,1.76,1.76,0,0,1,.61.47,1.83,1.83,0,0,0,.46.37c.21.13,11.69,5.87,20.81,7.19A.17.17,0,0,1,256.56,160.51Z"/><path class="cls-4" d="M256.14,160.9a3.07,3.07,0,0,1-.61,2.84.17.17,0,0,0,0,.18,1.9,1.9,0,0,1-.09,2,.18.18,0,0,0,0,.2c.41.74,2.87,5.45,2.84,9.76a27.65,27.65,0,0,1,0,2.92.19.19,0,0,0,0,.1,11.22,11.22,0,0,0,3.61,4.34c.7.48.82,1,.77,1.21a.62.62,0,0,1-.57.46,2.86,2.86,0,0,1-1.75-.41,18.29,18.29,0,0,1-2.81-1.93c-.48-.35-.46-.14-.46-.14a6.48,6.48,0,0,1-2.4,2.5c-3.44,2-5.41,1.81-5.62,1.79h-.16a5.71,5.71,0,0,1-4.24-.88s-1.42-.85-1.09-.29,1.72,2.16,1.26,3.84a4.43,4.43,0,0,1-1.35,2.33,3.08,3.08,0,0,1-.82.52c-.44.13-.55.4-1.38.37a1.46,1.46,0,0,1-1-.59.16.16,0,0,0-.17-.1c-.26,0-.81.37-1.11.12a1.33,1.33,0,0,1-.48-1.65.14.14,0,0,0,0-.17c-.19-.28-1.11-1.1-.63-1.7a4.57,4.57,0,0,1,.9-.8c.11-.07-.11-.61-.23-.67a1.49,1.49,0,0,1-.6-.94c0-.42.25-.56.57-.8a3.15,3.15,0,0,0,.29-.22c.29-.35-.11-.74-.16-.83a.8.8,0,0,1-.14-.6.29.29,0,0,0,0-.13,5.21,5.21,0,0,1-.77-1.85c-.06-.74-.31-2.55.23-3.21l.2-.27a.15.15,0,0,0,0-.16,45.18,45.18,0,0,1-2.11-6.78c-.46-2.54-.89-4.68-.93-4.85v0l-.06-.43a.36.36,0,0,0-.2-.25c-.27-.07-.75.19-1.18-1.11a13,13,0,0,1-.43-4.21.18.18,0,0,0-.12-.19c-.37-.12-1.32-.4-1.52-.76-.39-.74.14-2.37.23-2.88a.16.16,0,0,0-.05-.14c-.18-.19-.66-.64-.46-1.08a1.42,1.42,0,0,1,1.62-.76l.54-.07s-.37-.58-.15-.82a1.62,1.62,0,0,1,1.63-.56,1.71,1.71,0,0,1,.58.46,2.61,2.61,0,0,0,.44.37c.21.12,11.23,5.63,20,6.9A.18.18,0,0,1,256.14,160.9Z"/><path class="cls-5" d="M241.12,192.6a1.48,1.48,0,0,1-.94-.59.18.18,0,0,0-.17-.11c-.27,0-.81.38-1.11.13a1.31,1.31,0,0,1-.48-1.65.17.17,0,0,0,0-.17c-.19-.28-1.11-1.1-.63-1.71a4.86,4.86,0,0,1,.9-.79c.11-.07-.11-.61-.22-.67a1.52,1.52,0,0,1-.62-.94c0-.42.26-.56.57-.8a3.3,3.3,0,0,0,.3-.22c.29-.37-.11-.74-.16-.83a.84.84,0,0,1-.14-.6.29.29,0,0,0,0-.13,5.4,5.4,0,0,1-.77-1.85c-.06-.75-.31-2.55.24-3.21l.19-.28a.14.14,0,0,0,0-.15,46.82,46.82,0,0,1-2.11-6.78c-.46-2.55-.89-4.68-.92-4.85v0l-.06-.43a.38.38,0,0,0-.21-.25c-.27-.07-.75.2-1.17-1.13a13,13,0,0,1-.44-4.21.18.18,0,0,0-.11-.19c-.37-.12-1.33-.4-1.52-.74-.4-.74.13-2.38.22-2.88a.19.19,0,0,0,0-.15c-.19-.19-.67-.63-.47-1.08a1.43,1.43,0,0,1,1.62-.76l.54-.06s-.37-.58-.15-.82a1.64,1.64,0,0,1,1.63-.56,1.62,1.62,0,0,1,.58.46,2.61,2.61,0,0,0,.44.37s.55,3.94-2,5.74c0,0,1,5,2.69,6.18s2.14,1.19,2.21,1.18a3.18,3.18,0,0,1-1.75-.26c-.61-.38,1.77,11.73,4.08,12.78a7.62,7.62,0,0,0,1.52.53h0c-1.63.14-3.72.67-3.63,2.37.15,2.78-1.16,4.27.44,6s2.27,2,3.1,1.89a8.11,8.11,0,0,0,2.05-.89,4.3,4.3,0,0,1-1.32,2.23,2.9,2.9,0,0,1-.82.51C242.06,192.36,242,192.64,241.12,192.6Z"/><path class="cls-1" d="M238.57,187a20.61,20.61,0,0,0,3,3s1.08.68,1.24.8a10.29,10.29,0,0,1-1.67-.81,11.72,11.72,0,0,1-2.56-2.51C238.34,187.19,238.57,187,238.57,187Z"/><path class="cls-6" d="M239.21,186.11c-.37-1-3.36-5,3.21-7.26.7-.24,1.29-.53,1.85-.74a7.66,7.66,0,0,0-.93-.4l2.12-.58s-2.34-1.33-4.15-.37l-.93.19-2-8.16s-.47-.63,1-.74a13.64,13.64,0,0,0,3-.63s1.4-.95,1.24-1.68-1.2.46-1.2.46-1.31.59-1.11.41-3.46.17-4.15-1.46-.87-2.23-.87-2.23-1.11.41-1.11-.41,1.7-2.18,1.52-2.95.29-1.76.48-1.44,1.11,4.08,1.11,4.08l1.92-1.27s2.26.26,2.2,0a2.4,2.4,0,0,0-.57-1.47c-.61-.74-1.07-.68-.22-1.42s7.59,2.85,7.59,2.85l2.07,1.39s1.24.33.24.88c0,0,4.29-.1,3,1.19s-1.34,1.78-1.34,1.78l1.77-.56s4.34,8.91,2.72,13.87a9.68,9.68,0,0,1-6.42,6.25c-2.34.51-4.88-.28-3.31-1.93l.6-.77s-.45,0-.6-.14c0,0-2.59,2.16-5,1s-2.6-.87-2.6-.87.43.37,1.86,1.51,3,2.78,1.59,4.59S239.57,187.05,239.21,186.11Z"/><path class="cls-7" d="M253.89,165.12c1.16-1.21-2.79-1.15-2.79-1.15.91-.5-.23-.83-.23-.83L249,161.82s-6.25-3.42-7-2.73l0,0c-.29-.29-.34-.41.25-.93.85-.74,7.59,2.85,7.59,2.85l2.07,1.38s1.24.34.25.88c0,0,4.28-.09,3,1.2s-1.33,1.78-1.33,1.78l1.77-.56s4.33,8.9,2.72,13.87a9.66,9.66,0,0,1-6.42,6.24c-1.74.38-3.57.05-3.78-.8a4.69,4.69,0,0,0,3,.2c2.17-.46,5.46-2.24,6.46-5.41,1.46-4.67-2.6-13.1-2.6-13.1l-2.22.08S252.73,166.33,253.89,165.12Z"/><path class="cls-8" d="M237,160.34c.16.68-1.2,1.86-1.37,2.64a.43.43,0,0,1-.31-.48c0-.81,1.7-2.19,1.52-2.95s.29-1.76.48-1.44,1.11,4.08,1.11,4.08l1.92-1.27s1.17.14,1.8.13a3.51,3.51,0,0,1,.13.66c.06.21-2-.05-2-.05l-1.76,1.19s-.87-3.55-1.05-3.85S236.89,159.62,237,160.34Z"/><path class="cls-8" d="M239.56,168.36c-.81,0-1,.29-1,.46l0-.07s-.47-.62,1-.72a13.42,13.42,0,0,0,3-.62,4.7,4.7,0,0,0,.82-.72,3.74,3.74,0,0,1-1,1.12A12.48,12.48,0,0,1,239.56,168.36Z"/><path class="cls-8" d="M244.66,176.68a4.11,4.11,0,0,0-3.19,0l-.91.18L238.64,169l0,.05,1.87,7.7.84-.16A3.92,3.92,0,0,1,244.66,176.68Z"/><path class="cls-8" d="M244.13,177.86l-.08,0-.55-.22.15,0Z"/><path class="cls-8" d="M243,183.37c2.25,1.07,4.65-1,4.65-1,.13.15.55.13.55.13l-.55.71h0a4.85,4.85,0,0,1-4.48.64,15.81,15.81,0,0,0-1.8-.74,9.6,9.6,0,0,1-.74-.65S240.7,182.29,243,183.37Z"/><path class="cls-8" d="M239.39,186.05c-.23-.61-1.58-2.53-.7-4.42-.44,1.62.63,3.2.83,3.73.34.89,3,4.65,4.25,2.95a2.21,2.21,0,0,0,.45-1.73,2.27,2.27,0,0,1-.24,2.57C242.62,191,239.75,187,239.39,186.05Z"/><path class="cls-8" d="M242.2,161a2.35,2.35,0,0,0-.41-.72c-.55-.7-1-.66-.23-1.32.17.16.32.32.47.49a2.34,2.34,0,0,1,.57,1.47C242.61,161,242.45,161,242.2,161Z"/><path class="cls-8" d="M242.37,166.63s-1.21.56-1,.38-3.19.13-3.83-1.41-.83-2.1-.83-2.1-1,.37-1-.4V163a1.58,1.58,0,0,0,.78-.07s.2.59.88,2.22,4.33,1.28,4.15,1.47,1.14-.4,1.14-.4,1-1.19,1.19-.46a1.24,1.24,0,0,1-.43,1,.68.68,0,0,0,.09-.48C243.31,165.51,242.37,166.63,242.37,166.63Z"/><path class="cls-8" d="M238.6,168.82l0,.16A.29.29,0,0,1,238.6,168.82Z"/><path class="cls-8" d="M244.68,176.69a5.58,5.58,0,0,1,.94.41l-2,.54-.37-.16,1.92-.53A5,5,0,0,0,244.68,176.69Z"/><path class="cls-8" d="M238.69,181.63c.29-1.12,1.29-2.25,3.74-3.09.62-.21,1.14-.46,1.62-.65.11.06.25.11.37.19-.54.19-1.11.48-1.84.74C240.29,179.59,239.16,180.6,238.69,181.63Z"/><path class="cls-8" d="M247.6,183.26c.2-.12.39-.24.57-.37.15.16.6.14.6.14l-.6.76c-.42.44-.54.81-.46,1.11-.62-.33-.79-.89-.11-1.63Z"/><path class="cls-8" d="M244.22,186.6a6.8,6.8,0,0,0-1.83-2c-1.42-1.11-1.86-1.52-1.86-1.52s.06-.1.78.14l1,.79A4.81,4.81,0,0,1,244.22,186.6Z"/><path class="cls-1" d="M250,183.43a6.08,6.08,0,0,1-1,.68.61.61,0,0,1-.35.07,6.86,6.86,0,0,0,.45-2.29c0-1.09-.16-.27-.16-.27s-.25,2.82-1.78,3.41a7.28,7.28,0,0,1-4.49-.14,7.37,7.37,0,0,1-1.74-.9s-.49-.2,0,.19a6.57,6.57,0,0,0,2,1.11c.58.15-.63.17-.63.17s-.13.11.3.16a3.66,3.66,0,0,0,1.14-.12l1.2.25s2.46.14,3.42-.93c.4-.4.34-.33.34-.33A2.7,2.7,0,0,0,250,183.43Z"/><path class="cls-1" d="M258.24,179.34a23,23,0,0,1-1.64,3.8c-.56.66.44.28.44.28a8.48,8.48,0,0,0,1.6-3.64C258.73,178.14,258.24,179.34,258.24,179.34Z"/><path class="cls-1" d="M241.06,167.7a20.22,20.22,0,0,1-4.48-1.69,1.85,1.85,0,0,1-.89-1.8s-1-.34-1.3-.87-.69-2.23,0-3.06,1.12-1.05,1.33-1.73.42-1.78,1.11-1.75c0,0,1.29-.46,1.83,1.49.2.71.37,1.24.48,1.63a.49.49,0,0,0,.58.33h0a.49.49,0,0,0,.37-.31.3.3,0,0,1,.27-.22,5.52,5.52,0,0,1,2.35.7c.28.33-.17,0-.17,0a3.34,3.34,0,0,0-1.58-.4c-.79,0-.09.33,0,.37h0c.17.09,1.48.79,1.76,1.76s.24,1.11.24,1.11-.15.1-.27-.56a4.26,4.26,0,0,0-1.18-1.66l0,0c-.14-.11-1.14-.9-1.08-.4a15.61,15.61,0,0,0,.34,1.54v.06c0,.09.15.37,0,.37s-.3-.37-.3-.37l-.46-1.4s-.3-.54-.42.06a10.74,10.74,0,0,0,.21,2.39s0,.44-.07.33-.55-1.83-.55-1.83l-1-3.58s-.46-2.08-2-.37a.87.87,0,0,0-.29.68.49.49,0,0,1-.1.37c-.16.2-.48.58-1.14,1.34-.87,1,0,2.79.31,3.36a.57.57,0,0,0,.3.23l.68.14H236l.18.26a1,1,0,0,0,.05.4c.16.79,1.49,1.42,2.78,2a4.17,4.17,0,0,0,2.85.16c.23-.07.24.1.24.1-.13.34-.83.37-.83.37.37.37,1.48.25,1.48.25C242.77,168,241.75,167.85,241.06,167.7Z"/><path class="cls-1" d="M235.86,153.49s1.26,2.95.47,3.92l-.18-.16s.21-2.71-.59-3.75Z"/><path class="cls-1" d="M234.49,153.8s-2.6,1.8-2.65,3.78.13.74.13.74a4.93,4.93,0,0,1,2.19-4.08S234.6,153.82,234.49,153.8Z"/><path class="cls-1" d="M255.37,166a12.13,12.13,0,0,1-2.43,1.27c-.58.09.34.11.34.11s1.8-.3,2.22-1.05S255.37,166,255.37,166Z"/><path class="cls-1" d="M255.11,164a6.84,6.84,0,0,1-1.71.61,4.27,4.27,0,0,1-.8.1c-.59,0,.31.16.31.16s2.09-.15,2.62-.83C255.8,163.68,255.35,163.86,255.11,164Z"/><path class="cls-8" d="M252.51,185.28a2.65,2.65,0,0,1-2.49-.17c-.74-.47-.91-1.11.2-2,2.45-1.94,2.75-5.71,2.74-7.55a2.69,2.69,0,0,0-.63-1.73c-.91-1.09-2.43-3.34-.88-4.72,1-.92,2.66-.56,4.08.07a2.74,2.74,0,0,1,1.51,1.7c.84,2.8,1.46,6.14.67,8.53A10,10,0,0,1,252.51,185.28Z"/><path class="cls-8" d="M258.64,179.78s.08.24-.19,1a18.11,18.11,0,0,0,3.56,3.17s.81.26.16-.45a17,17,0,0,1-2.09-1.69A12.3,12.3,0,0,1,258.64,179.78Z"/><path class="cls-9" d="M257.76,155.39a21.6,21.6,0,0,1-10.38-1.6c-5.68-2.31-7.61-4.16-7.61-4.16a22.13,22.13,0,0,1,2.06-6.26,10.14,10.14,0,0,1,11.46-5c6.81,1.64,6.28,9.12,6.23,10.3A37.09,37.09,0,0,1,257.76,155.39Z"/><g class="cls-10"><path class="cls-11" d="M252.73,154.18a11.38,11.38,0,0,1-6.34-1.72,21.85,21.85,0,0,1-4.6-3.18s-.51-2.8-.07-4.06c1.29-3.74,6.93-8.9,10.81-6.7,1.51.85,3.8,6,3,13.82C255.43,153.33,252.91,153.58,252.73,154.18Z"/></g><g class="cls-12"><path class="cls-13" d="M252.12,153.91a11.38,11.38,0,0,1-6.34-1.72,21.85,21.85,0,0,1-4.6-3.18,11.35,11.35,0,0,1-.07-4.06c1.29-3.74,6.34-8,10.52-6.41s3,11.71,3.05,12.61S252.3,153.29,252.12,153.91Z"/></g><path class="cls-14" d="M251.84,154.36a11.41,11.41,0,0,1-6.34-1.71,21.85,21.85,0,0,1-4.6-3.18,36.34,36.34,0,0,1,.43-4.94c.77-3,5.17-6.72,9.35-5.15s1.87,9.06,1.9,10A31.54,31.54,0,0,1,251.84,154.36Z"/><path class="cls-1" d="M257.39,158.06a23.73,23.73,0,0,1,.44-3,7.72,7.72,0,0,0-.69-5.82,19.41,19.41,0,0,0-3.49-4.13s-.64-.33-1.11-2.09-.69-4.06-4.08-3.2a8.29,8.29,0,0,0-5.85,5.35c-.55,1.84-.71,2.65-.56,2.85,0,0-1.25,0-1.55.54a4.22,4.22,0,0,0-.41.89l-.54,1.86Z"/><path class="cls-15" d="M247.8,153.62l-7.72-2.89.37-1.3s.14-.25.37-.59,1-.41,1-.41h0A17.14,17.14,0,0,0,247.8,153.62Z"/><path class="cls-16" d="M257.31,157.89l-7.08-2.55h0a24.07,24.07,0,0,1-8.34-7.25h0c-.16-.19,0-1,.53-2.77a8.09,8.09,0,0,1,5.71-5.21c3.34-.85,3.51,1.4,4,3.11s1.11,2,1.11,2a18.74,18.74,0,0,1,3.41,4,8.2,8.2,0,0,1,.9,5.77A14.77,14.77,0,0,0,257.31,157.89Z"/><path class="cls-1" d="M252.35,142.66s-.87.88-1.62.37-.8-.72-1.11-2.11c0,0-.1-.73-.34-.91s1.08-.33,1.08-.33a2.46,2.46,0,0,1,1.73,2C252.51,143.45,252.35,142.66,252.35,142.66Z"/><path class="cls-17" d="M259.58,146.34a5.51,5.51,0,0,1-3.45-5.08,4.27,4.27,0,0,0-1.33-2.67A7.47,7.47,0,0,1,259.58,146.34Z"/><path class="cls-18" d="M259.46,146.73a.37.37,0,0,0-.52,0,.21.21,0,0,0-.06.1c-.25.51-.66,1.55-.17,1.74.67.25,1.24.17,1.15-.32S259.85,147.07,259.46,146.73Z"/><path class="cls-19" d="M254.76,153a1.49,1.49,0,0,0,1.5-1.47,1.77,1.77,0,0,0,0-.23c-.12-.74-1.44-2.1-2-2.65a1.64,1.64,0,0,0-.25-.21,2.18,2.18,0,0,0-3.31,2.45,3.27,3.27,0,0,0,1.88,1.72A3.92,3.92,0,0,0,254.76,153Z"/><path class="cls-20" d="M252.39,150.24c-.3.08-.85-.09-.93-.39a.55.55,0,0,1,.39-.69h0a.74.74,0,0,1,.85.37.53.53,0,0,1-.28.7Z"/><path class="cls-11" d="M252.53,150a.33.33,0,0,1-.44-.14c-.1-.17.07-.4.21-.48s.37,0,.43.23A.33.33,0,0,1,252.53,150Z"/><path class="cls-21" d="M251.6,141.43a.25.25,0,0,1-.33-.12h0c-.09-.15,0-.33.14-.39s.29,0,.34.2A.28.28,0,0,1,251.6,141.43Z"/><path class="cls-21" d="M251.42,140.7a.11.11,0,0,1-.14,0h0a.12.12,0,0,1,.06-.16c.08,0,.12,0,.14.08A.13.13,0,0,1,251.42,140.7Z"/><path class="cls-22" d="M247.11,141.45s-2.94,1.21-3.93,3.6a10,10,0,0,0-.75,2.44,1.82,1.82,0,0,0,.3,1.26,8.45,8.45,0,0,0,2.39,2.34c1.75,1.08,2.91.88,3.19.58s-2.69-2.42-2.89-2.87a4.3,4.3,0,0,1-.65-3.39C245.34,143.56,247.2,142.08,247.11,141.45Z"/><path class="cls-1" d="M249.8,151.41l-.71.21a5,5,0,0,0-.64.25,1.43,1.43,0,0,0-.49.32l-.12.11a.27.27,0,0,0-.07.21v.06a.21.21,0,0,1-.21.19h0l-.08,0a.6.6,0,0,1-.29-.51.8.8,0,0,1,.2-.55,1.84,1.84,0,0,1,.78-.5,3.27,3.27,0,0,1,1.61-.14.18.18,0,0,1,.16.21.18.18,0,0,1-.13.16Z"/><path class="cls-1" d="M257.4,160.7a1.56,1.56,0,0,0,.92-.62,3.2,3.2,0,0,0,.42-.74,12.13,12.13,0,0,0,.72-3.57c-.09-1-.48-.92-.62-.92a49,49,0,0,1-10.58-1.91,61.73,61.73,0,0,1-8.36-4,1.14,1.14,0,0,0-1.59.16l0,0A8.15,8.15,0,0,0,237,152.6a3.23,3.23,0,0,0,.56,2,26.06,26.06,0,0,0,8,5.18,20.85,20.85,0,0,0,7,1.45A20.39,20.39,0,0,0,257.4,160.7Z"/><path class="cls-11" d="M256.92,160.55a2.16,2.16,0,0,0,1.48-1.11,2,2,0,0,0,.1-.21,11.11,11.11,0,0,0,.65-3.28c-.08-.94-.44-.82-.56-.84a46.39,46.39,0,0,1-10.25-1.72c-2-.67-7.05-3.29-8-3.71a1.62,1.62,0,0,0-1.31-.12.75.75,0,0,0-.33.28,7.11,7.11,0,0,0-1.11,3.09,3.7,3.7,0,0,0,1.32,2.4,29.1,29.1,0,0,0,7.54,4.35A18.64,18.64,0,0,0,252.9,161,18.16,18.16,0,0,0,256.92,160.55Z"/><path class="cls-23" d="M259,155.23a.62.62,0,0,0-.07-.23c-.06-.07-2.81-.25-3-.27h0l-4.75-.8h0l-3.6-1h0l-3.41-1.57L241,149.8h0l-1.14-.46-.52-.08h-.18a.14.14,0,0,0-.12.15.11.11,0,0,0,.05.09,22.71,22.71,0,0,0,3.71,2.34,76.26,76.26,0,0,0,8.38,3.21,25.49,25.49,0,0,0,5.22.66,14.79,14.79,0,0,0,2.74-.26A1.41,1.41,0,0,0,259,155.23Z"/><path class="cls-24" d="M245.81,159.42a32.2,32.2,0,0,1-4.91-2.73,7.35,7.35,0,0,1-1.49-2.73,6.67,6.67,0,0,1,1-2.89.59.59,0,0,1,.29-.27,1.44,1.44,0,0,1,1.18.13c.69.31,3.47,1.94,5.57,2.94a6.48,6.48,0,0,0-1.92,1,3.64,3.64,0,0,0-.69,1,2.36,2.36,0,0,0-.24,1A3.76,3.76,0,0,0,245.81,159.42Z"/><path class="cls-23" d="M243.77,158.47c-2.15-1.25-3.92-2.39-4.11-2.56a4.86,4.86,0,0,1-1.24-2.23,6.59,6.59,0,0,1,1-2.89.69.69,0,0,1,.29-.27,1.46,1.46,0,0,1,1.19.13c.68.31,3.49,1.83,5.6,2.83a7.39,7.39,0,0,0-2,1.14,2.32,2.32,0,0,0-1,1.68A6,6,0,0,0,243.77,158.47Z"/><path class="cls-25" d="M247.62,153.83a14.93,14.93,0,0,1-2.37-.68c-.37-.14-.76-.29-1.14-.46s-.74-.33-1.11-.51c-.74-.37-1.45-.77-2.16-1.19a21.42,21.42,0,0,1-2-1.39l.21-.31c.68.44,1.4.82,2.1,1.21s1.43.75,2.16,1.12l2.19,1.06c.74.37,1.45.74,2.16,1.14Z"/><polygon class="cls-25" points="251.06 155.13 250.1 154.75 250.12 154.67 251.14 154.78 251.06 155.13"/><path class="cls-26" d="M252.48,155.22c-.44-.07-.91-.16-1.38-.27"/><path class="cls-25" d="M259.15,155.52a10.49,10.49,0,0,1-1.68.26,15.72,15.72,0,0,1-1.68.06,13.41,13.41,0,0,1-1.68-.1,11.89,11.89,0,0,1-1.66-.33l.06-.37c.56,0,1.12.06,1.65.08l1.64.1c.55,0,1.1,0,1.65,0s1.11,0,1.63-.08Z"/><path class="cls-23" d="M258.25,159.72s-3.61,1.19-5.88.93.22.32.22.32a24.31,24.31,0,0,0,4.42-.47C258.11,160.11,258.25,159.72,258.25,159.72Z"/><path class="cls-1" d="M254.19,159.81s.31-1.11-.14-1.67a2.38,2.38,0,0,0-2.76-.57,1.63,1.63,0,0,0-.32,2.5,16.31,16.31,0,0,0,5.62,4,2.66,2.66,0,0,0,.74.12,1.23,1.23,0,0,0,1,.79,1,1,0,0,0,.82-.35,1.33,1.33,0,0,0,.38-1.2,1,1,0,0,0-1-.86s-.49,0-.64.23S255.29,161.82,254.19,159.81Z"/><path class="cls-27" d="M254.11,159.89s.24-1.06-.16-1.54a2,2,0,0,0-2.39-.46,1.34,1.34,0,0,0-.65,1.31,2,2,0,0,0,.48,1.05,15.54,15.54,0,0,0,4.87,3.47,5.82,5.82,0,0,0,1.21.37,1.14,1.14,0,0,0,.89.75,1,1,0,0,0,.77-.38,1.14,1.14,0,0,0,.26-1,.78.78,0,0,0-.3-.51,1,1,0,0,0-.83-.16.58.58,0,0,0-.32.16C257.82,163.08,255.22,162.06,254.11,159.89Z"/><polygon class="cls-1" points="267.18 176.59 267.12 176.58 267.15 176.55 267.18 176.59"/><path class="cls-28" d="M260.69,172.29a1.57,1.57,0,0,1-1,.53l-1,.23a17.87,17.87,0,0,0-1.61-5,2.73,2.73,0,0,1,.35-3.26,1.44,1.44,0,0,0,2.18-.22,1.41,1.41,0,0,0-.44-2.09s-.74-.3-1.11,0-1-.5-1-.5-.25-.89.09-1.18a10.48,10.48,0,0,1,1.53-.78s1-.14,1.74,1.49a22.67,22.67,0,0,1,1.19,5.33A9.35,9.35,0,0,1,260.69,172.29Z"/><path class="cls-29" d="M260.32,172.4a42.91,42.91,0,0,0,.32-7,12.61,12.61,0,0,0-1.36-4.54c-.44-1,.57,0,.57,0a14.17,14.17,0,0,1,1.3,3.91c.49,2.12.47,5.27-.29,6.86C260.49,172.44,260.32,172.4,260.32,172.4Z"/><path class="cls-30" d="M260.33,173.67a.29.29,0,0,0,.14-.24,1.09,1.09,0,0,0-.07-.51,7.87,7.87,0,0,0-1.65.3.16.16,0,0,0-.12.18l.06.51a.16.16,0,0,0,.18.14A3.9,3.9,0,0,0,260.33,173.67Z"/><path class="cls-30" d="M261.08,170.06s.39-1.59.19-1.69-.37.48-.37.48S260.81,170.24,261.08,170.06Z"/><path class="cls-30" d="M261.24,167.35c0-.13-.23-.1-.26,0a1.78,1.78,0,0,0,0,.46.29.29,0,0,0,.31-.27A.22.22,0,0,0,261.24,167.35Z"/><path class="cls-2" d="M260,168.1c-.07-.1-1.28-.34-1.71.15s.17.19.25.15h0c.09,0,.83-.23,1.08-.06a.22.22,0,0,0,.31.07A.22.22,0,0,0,260,168.1Z"/><path class="cls-2" d="M260,169.21s-1.09-.16-1.37.18,0,.27,0,.27a1.89,1.89,0,0,1,.7-.17C259.73,169.46,260.41,169.62,260,169.21Z"/><path class="cls-2" d="M260,170.51a2.44,2.44,0,0,0-1-.1c-.4.09-.09.38-.09.38s.87-.12,1-.11S260.19,170.74,260,170.51Z"/><path class="cls-1" d="M260,168c-.07-.11-1.29-.35-1.72.14s.18.2.26.16h0c.09,0,.83-.23,1.07-.06a.25.25,0,0,0,.33,0A.23.23,0,0,0,260,168Z"/><path class="cls-1" d="M259.93,169.08s-1.08-.17-1.37.17,0,.27,0,.27a2.46,2.46,0,0,1,.71-.17C259.71,169.33,260.41,169.49,259.93,169.08Z"/><path class="cls-1" d="M259.94,170.37a2.28,2.28,0,0,0-1-.09.25.25,0,0,0-.23.26.2.2,0,0,0,.06.15s.94-.15,1-.13S260.18,170.6,259.94,170.37Z"/><path class="cls-11" d="M258.23,168.51s-.06-.15,0-.3a.58.58,0,0,1,.07-.12.36.36,0,0,0-.18.24C258.13,168.42,258.19,168.51,258.23,168.51Z"/><path class="cls-11" d="M258.49,169.64c.05,0-.06-.15,0-.3l.08-.12a.41.41,0,0,0-.19.24C258.4,169.53,258.45,169.64,258.49,169.64Z"/><path class="cls-11" d="M258.88,170.81c.05,0-.17-.21-.07-.37a.88.88,0,0,1,.08-.14.29.29,0,0,0-.18.21A.4.4,0,0,0,258.88,170.81Z"/><path class="cls-1" d="M254.16,159.58s-1.28-1.56-2.11-.85a1.84,1.84,0,0,0-.79,1.36l0,.18a7.45,7.45,0,0,1,.53-.91c.12-.13.61-.9,1.35-.35s1,.72,1,.72Z"/><path class="cls-11" d="M258.21,163a5.93,5.93,0,0,1-4.2-3l-.06-.41-.66-.46s-.74.09.46,1.36A10.38,10.38,0,0,0,257.3,163C257.92,163.13,258.35,163.34,258.21,163Z"/><path class="cls-1" d="M257.94,162.88a.56.56,0,0,1,.41.68l0,.1a.82.82,0,0,1-.82.57v-.15s1.2-.34.37-1.18Z"/><path class="cls-1" d="M256.92,164.06a2.93,2.93,0,0,0,.56-.42.71.71,0,0,0,0-.72c-.15-.24-.2-.18-.2-.18l.11.21a.79.79,0,0,1-.37.84c-.5.28-.18.28-.18.28"/><path class="cls-1" d="M256.35,163.83s.67-.24.66-.83-.14-.52-.14-.52l-.07,0s.14.72-.06.9-.48.41-.48.41Z"/><path class="cls-1" d="M254.48,160.31l-.07-.09s-.87-.66-1.51-.1a2.16,2.16,0,0,0-.74.95l.17.17.69-.89a1,1,0,0,1,1.4,0Z"/><path class="cls-1" d="M253.23,162a.5.5,0,0,1,0-.62,1.45,1.45,0,0,1,1-.65c.49-.07.52,0,.52,0l0,0a4.69,4.69,0,0,0-1,.37c-.22.17-.56.52-.51.86l0,.05"/><path class="cls-1" d="M254.48,162.89l-.16-.11a1.15,1.15,0,0,1,.19-.74,2.87,2.87,0,0,1,.88-.62l.12.1a3.57,3.57,0,0,0-.78.5A3.33,3.33,0,0,0,254.48,162.89Z"/><path class="cls-1" d="M256,162a1.73,1.73,0,0,0-.63.63,2.14,2.14,0,0,0-.23.64c0,.17.2.15.2.15a1.66,1.66,0,0,1,.33-1,2.18,2.18,0,0,1,.42-.33Z"/><path class="cls-1" d="M256.54,162.29s-1,1.16-.64,1.32l0,0a5.3,5.3,0,0,1,.37-.8,5.17,5.17,0,0,0,.32-.5Z"/><path class="cls-11" d="M258.39,162.75s.51,0,.67.34a1.06,1.06,0,0,1-.07,1.11c-.23.26-.77.42-.85.33s.44-.44.44-.44a3.23,3.23,0,0,0,.25-.49.77.77,0,0,0-.24-.62C258.47,162.88,258.33,162.81,258.39,162.75Z"/><path class="cls-11" d="M254.07,159.07a1.51,1.51,0,0,0-.37-.81,2.13,2.13,0,0,0-1.49-.5,1.21,1.21,0,0,0-.84.46c-.15.26.55,0,.55,0s1.34-.2,1.63.25C254,159.1,254.11,159.29,254.07,159.07Z"/><g class="cls-31"><path class="cls-1" d="M215.09,30.73s-.66-2.81,3.22-2.16,10,2.47,13.37,7.56l.2.46a.79.79,0,0,0,.33.37l.51.29a.56.56,0,0,1,.28.58,5.86,5.86,0,0,1-1,2.53,3.22,3.22,0,0,1-2,.71L218.23,38.7C208.81,36.59,215.09,30.73,215.09,30.73Z"/><path class="cls-2" d="M215.39,31.22s-.61-2.71,3.08-2.11,9.53,2.3,12.7,7.22l.19.44a.71.71,0,0,0,.31.35l.49.28a.52.52,0,0,1,.25.56,5.71,5.71,0,0,1-.94,2.46,3.1,3.1,0,0,1-1.91.7l-11.25-2.19C209.35,37,215.39,31.22,215.39,31.22Z"/><path class="cls-32" d="M210.82,27.31A32.31,32.31,0,0,1,200.63,39.2c-7.37,5.37-10.46,6.37-10.46,6.37a48.79,48.79,0,0,1-5.47-6.12c-1.55-2.36-6.31-12.48,1.11-19.82s16.46-.78,17.91.2C205.32,20.92,210.06,26.2,210.82,27.31Z"/><path class="cls-1" d="M214.62,32.83a4.19,4.19,0,0,1,2.91,2.8.22.22,0,0,0,.19.18A2.58,2.58,0,0,1,220,37.35a.23.23,0,0,0,.22.17c1.19.07,8.55.6,13.63,3.81,1.8,1,3.15,2,3.44,2.17a.17.17,0,0,0,.12,0,20.53,20.53,0,0,0,4.56-.4,24.12,24.12,0,0,0,3-1.07,1.42,1.42,0,0,1,1.64.44,1.72,1.72,0,0,1,.17.71,2.53,2.53,0,0,1-1.3,2.2,27.58,27.58,0,0,1-4.1,2.06c-.74.32-.66.1-.66.1a8.88,8.88,0,0,1,1.19,4.66c-.2,5.51-2,7.83-2.19,8.06l0,0a9,9,0,0,1-4.4,4.14s-1,.37-.07.4A6.79,6.79,0,0,1,239.94,67a6,6,0,0,1,1.45,3.65,3.67,3.67,0,0,1-.13,1.27,8.82,8.82,0,0,1-.59,1.8,1.3,1.3,0,0,1-.95.74.26.26,0,0,0-.25.13,2.22,2.22,0,0,1-1,1.19c-.66.22-2.48.26-3-.72a.23.23,0,0,0-.2-.13c-.48,0-2,0-2.34-1a4.25,4.25,0,0,1-.31-1.2.24.24,0,0,0-.24-.24.25.25,0,0,0-.13,0c-.4.25-.91.49-1.19.33-.51-.28-1.33-.92-1.38-1.46,0-.23,0-.39,0-.51a.23.23,0,0,0-.23-.22,1.19,1.19,0,0,1-.83-.27.22.22,0,0,0-.15-.08,7.69,7.69,0,0,1-2.77-.45c-.93-.48-3.61-1.65-4-2.78l-.19-.44a.24.24,0,0,0-.17-.14,57.24,57.24,0,0,1-9.19-2.33c-3.34-1.31-6.19-2.38-6.42-2.46h0l-.19-.11a.24.24,0,0,0-.32.09c-.19.31-.81.85-2.7.39a11.59,11.59,0,0,1-4.35-2.25.26.26,0,0,0-.31,0c-.43.37-1.68,1.34-2.64,1a10.63,10.63,0,0,1-3-2.14.21.21,0,0,0-.2-.05c-.37.07-1.49.23-1.86-.33s-.79-2,0-2.73l.37-.43a.92.92,0,0,1-1.13-.63s0,0,0,0a2.13,2.13,0,0,1,.53-2.34,2.45,2.45,0,0,1,1-.34,3.43,3.43,0,0,0,.74-.26c.3-.16,14.91-9.16,22.85-18.59A.23.23,0,0,1,214.62,32.83Z"/><path class="cls-4" d="M214.78,33.59a4.05,4.05,0,0,1,2.8,2.69.25.25,0,0,0,.19.18,2.5,2.5,0,0,1,2.15,1.48.25.25,0,0,0,.21.17c1.15.06,8.21.57,13.09,3.65,1.73,1,3,1.9,3.3,2.09a.2.2,0,0,0,.13,0,14.7,14.7,0,0,0,4.27-.12,14,14,0,0,0,3.21-.93,1.87,1.87,0,0,1,1.92,0,.83.83,0,0,1,.13,1c-.12.33-.5.92-1.7,1.7a27.51,27.51,0,0,1-4.18,1.85c-.73.33-.49.43-.49.43A8.63,8.63,0,0,1,241,52.26c-.2,5.29-1.76,7.42-1.94,7.64l-.1.19c-.14.27-.63,2.33-4,4.21,0,0-2,1-1.11,1s3.66-.43,5.25,1.28a6,6,0,0,1,1.7,3.18,4.05,4.05,0,0,1,0,1.3c-.16.59.07.91-.56,1.83a1.91,1.91,0,0,1-1.34.65.22.22,0,0,0-.23.12c-.15.33-.16,1.18-.64,1.34a1.77,1.77,0,0,1-2.23-.62.23.23,0,0,0-.2-.12c-.45,0-2,.5-2.38-.48a6.07,6.07,0,0,1-.26-1.58c0-.17-.78-.31-.93-.22a2,2,0,0,1-1.48,0c-.5-.27-.46-.69-.52-1.21a2.7,2.7,0,0,0,0-.49c-.19-.58-.92-.4-1.05-.41a1.14,1.14,0,0,1-.79-.25.2.2,0,0,0-.14-.08,7.23,7.23,0,0,1-2.66-.43c-.89-.46-3.11-1.44-3.47-2.53l-.18-.42a.26.26,0,0,0-.17-.14,62,62,0,0,1-9.19-2.37c-3.22-1.27-5.94-2.29-6.17-2.38h0l-.53-.23a.47.47,0,0,0-.43.06c-.27.25-.3,1-2.11.53a17.33,17.33,0,0,1-5.1-2.47.23.23,0,0,0-.29,0c-.41.35-1.4,1.22-1.93,1.19-1.12-.07-2.6-1.83-3.12-2.28a.21.21,0,0,0-.2,0c-.34.06-1.18.3-1.55-.24a1.91,1.91,0,0,1,.27-2.38l.31-.65s-.93,0-1-.41a2.17,2.17,0,0,1,.51-2.25,2.21,2.21,0,0,1,.93-.33,3.61,3.61,0,0,0,.72-.25c.29-.15,14.33-8.79,22-17.86A.22.22,0,0,1,214.78,33.59Z"/><path class="cls-5" d="M240.21,73a2,2,0,0,1-1.34.66.21.21,0,0,0-.23.11c-.16.34-.16,1.19-.65,1.35a1.77,1.77,0,0,1-2.22-.62.22.22,0,0,0-.2-.12c-.45,0-2,.49-2.38-.48a6,6,0,0,1-.23-1.57c0-.17-.78-.31-.93-.22a1.9,1.9,0,0,1-1.48,0c-.49-.27-.45-.68-.51-1.21a4.22,4.22,0,0,0,0-.49c-.19-.57-.93-.4-1.05-.4a1.13,1.13,0,0,1-.79-.26.22.22,0,0,0-.15-.08,7.21,7.21,0,0,1-2.65-.43c-.9-.46-3.12-1.44-3.48-2.53l-.18-.42a.21.21,0,0,0-.17-.13,62.68,62.68,0,0,1-9.19-2.38c-3.21-1.27-5.93-2.29-6.16-2.37h0l-.53-.24a.45.45,0,0,0-.43.07c-.27.25-.3,1-2.11.53A17.32,17.32,0,0,1,198,59.33a.23.23,0,0,0-.29,0c-.41.37-1.4,1.23-1.94,1.2-1.11-.07-2.59-1.83-3.11-2.28a.25.25,0,0,0-.2-.06c-.35.07-1.19.31-1.55-.23a1.89,1.89,0,0,1,.27-2.38l.31-.66s-.93,0-1-.41a2.15,2.15,0,0,1,.51-2.24,2.28,2.28,0,0,1,.93-.34,3.05,3.05,0,0,0,.74-.24s4.87,2.15,5.13,6.3c0,0,6.31,2.4,8.91,1.3,2.79-1.19,2.87-1.59,2.9-1.68A4.27,4.27,0,0,1,208,59.42c-.82.41,14.55,6.24,17.37,4.34a9.9,9.9,0,0,0,1.67-1.37h0c-1,2-1.86,4.72.14,5.81,3.26,1.78,4,4.33,7.19,3.76s3.89-1.16,4.32-2.19a10.8,10.8,0,0,0,.45-3,5.75,5.75,0,0,1,1.6,3.08,4,4,0,0,1,0,1.29C240.61,71.78,240.84,72.09,240.21,73Z"/><path class="cls-1" d="M232.08,72a28.14,28.14,0,0,0,5.52-1.26s1.54-.75,1.78-.85a14.6,14.6,0,0,1-2.08,1.32,15.69,15.69,0,0,1-4.67,1.16C232.1,72.36,232.08,72,232.08,72Z"/><path class="cls-6" d="M231.48,70.6c-1.34-.26-8.08.29-6-8.76.23-1,.31-1.85.47-2.59a10.14,10.14,0,0,0-1.11.78l.84-2.82s-3.17,1.72-3.34,4.45l-.44,1.17-10.65-3.5s-1,.1-.14-1.6a18.53,18.53,0,0,0,1.42-3.87s-.1-2.28-1-2.6-.32,1.68-.32,1.68-.25,1.92-.33,1.58-2.25,4-4.59,3.68-3.14-.57-3.14-.57-.32,1.54-1.24.95-1.28-3.47-2.27-3.81-1.81-1.57-1.31-1.56,5.42,1.6,5.42,1.6l-.08-3.06s1.88-2.4,1.59-2.48a3.08,3.08,0,0,0-2.06-.37c-1.28.16-1.53.72-1.78-.74S210,41.5,210,41.5l3-1.38s1.25-1.16,1.16.35c0,0,2.92-4.94,3.5-2.59s1.09,2.77,1.09,2.77l.61-2.41S232.54,39.6,237,44.92c3.06,3.62,3.66,8.66,2.58,11.7S235.85,62,235.08,59l-.45-1.23s-.29.53-.58.58c0,0,.62,4.5-2.37,6.48s-2.82,2.31-2.82,2.31.74-.21,3-1,5.23-1.4,6.34,1.42S232.81,70.86,231.48,70.6Z"/><path class="cls-7" d="M218,39.12c-.56-2.17-3.28,2.37-3.28,2.37.07-1.4-1.12-.33-1.12-.33l-2.85,1.25s-8.28,4.7-8,6.05v0c-.53.13-.71.1-.88-.94-.24-1.48,8.59-6.62,8.59-6.62l3-1.37s1.25-1.17,1.17.34c0,0,2.91-4.94,3.49-2.59s1.08,2.77,1.08,2.77l.61-2.41S233,39,237.48,44.36c3.05,3.63,3.65,8.66,2.57,11.7-.8,2.22-2.46,4.08-3.58,3.71a6.33,6.33,0,0,0,2.32-3.23c1-2.79,1.3-7.79-1.6-11.16-4.27-4.94-16.72-6.31-16.72-6.31L219,41.65S218.53,41.29,218,39.12Z"/><path class="cls-8" d="M200.69,54.9c.88.3,1.26,2.69,2,3.42a.59.59,0,0,1-.77,0c-.91-.58-1.29-3.46-2.28-3.8s-1.8-1.58-1.3-1.57,5.42,1.61,5.42,1.61l-.09-3.07s1-1.24,1.42-2a4.6,4.6,0,0,1,.83.32c.28.08-1.48,2.28-1.48,2.28l.11,2.83s-4.66-1.51-5.13-1.52S199.74,54.58,200.69,54.9Z"/><path class="cls-8" d="M211.55,57.7c-.51.95-.35,1.29-.15,1.41l-.09,0s-1.05.09-.13-1.61a18.29,18.29,0,0,0,1.41-3.87,6.37,6.37,0,0,0-.23-1.43,5.13,5.13,0,0,1,.51,2A16,16,0,0,1,211.55,57.7Z"/><path class="cls-8" d="M224.62,57.76a5.59,5.59,0,0,0-2.23,3.65L222,62.58l-10.35-3.4h.09l10.06,3.3.41-1.07A5.33,5.33,0,0,1,224.62,57.76Z"/><path class="cls-8" d="M225.58,59.21l0,.1c-.4.28-.63.47-.63.47l0-.19Z"/><path class="cls-8" d="M231,64.42c2.8-1.8,2.19-5.93,2.19-5.93.27-.05.54-.53.54-.53l.43,1.13h0c0,1.43-.27,4.13-2.42,5.54a22.67,22.67,0,0,0-2.11,1.53c-.94.31-1.28.4-1.28.4S228.2,66.23,231,64.42Z"/><path class="cls-8" d="M231.55,70.37c-.86-.17-4,0-5.53-2.33,1.54,1.64,4.08,1.54,4.82,1.68,1.26.25,7.42-.14,6.35-2.75a2.88,2.88,0,0,0-1.66-1.72,3,3,0,0,1,2.76,2.08C239.41,70.15,232.88,70.62,231.55,70.37Z"/><path class="cls-8" d="M205.11,49.53a3.19,3.19,0,0,0-1.11,0c-1.2.14-1.44.65-1.67-.66a5.42,5.42,0,0,1,.89-.19,3.12,3.12,0,0,1,2.07.37C205.37,49,205.28,49.25,205.11,49.53Z"/><path class="cls-8" d="M211.58,53.28s-.22,1.78-.3,1.46-2.09,3.71-4.31,3.36-3-.54-3-.54-.3,1.42-1.16.87l-.14-.12a2.11,2.11,0,0,0,.47-.93s.8.19,3.14.57,4.5-4,4.58-3.68.34-1.58.34-1.58-.64-2,.31-1.68a1.62,1.62,0,0,1,.81,1.17,1,1,0,0,0-.5-.44C211,51.43,211.58,53.28,211.58,53.28Z"/><path class="cls-8" d="M211.4,59.11l.21.07A.58.58,0,0,1,211.4,59.11Z"/><path class="cls-8" d="M224.63,57.75a7.32,7.32,0,0,1,1.13-.78L225,59.59c-.28.2-.44.33-.44.33l.76-2.6A7.65,7.65,0,0,0,224.63,57.75Z"/><path class="cls-8" d="M226,68c-1.05-1.11-1.64-3.05-.87-6.44.2-.85.28-1.61.41-2.29L226,59c-.16.74-.25,1.63-.47,2.6C224.83,64.79,225.19,66.77,226,68Z"/><path class="cls-8" d="M234.17,59.07a5.62,5.62,0,0,0,0-.92c.29-.06.58-.58.58-.58l.46,1.22c.2.78.53,1.19.94,1.32-.81.46-1.57.27-1.93-1Z"/><path class="cls-8" d="M235.56,65.25a9,9,0,0,0-3.59.65c-2.28.83-3,1-3,1s-.08-.15.7-.79l1.57-.54A6.7,6.7,0,0,1,235.56,65.25Z"/><path class="cls-1" d="M236,56.51a7.33,7.33,0,0,1,.06,1.62.7.7,0,0,1-.16.44,9.2,9.2,0,0,0-2.28-2.12c-1.26-.74-.42,0-.42,0s3,2.27,2.62,4.43a9.62,9.62,0,0,1-3.34,5,10.22,10.22,0,0,1-2.25,1.34s-.58.42.22.13a8.68,8.68,0,0,0,2.65-1.43c.57-.56-.25.83-.25.83s0,.23.39-.22a5.24,5.24,0,0,0,.67-1.39L235,64s1.91-2.71,1.37-4.55c-.18-.74-.14-.62-.14-.62A3.65,3.65,0,0,0,236,56.51Z"/><path class="cls-1" d="M237.21,44.2s2.8,3.45,3.16,4.55.63-.3.63-.3-1.21-3.12-3-4.39S237.21,44.2,237.21,44.2Z"/><path class="cls-1" d="M211.86,55.52a26,26,0,0,1-5.07,3.91,2.47,2.47,0,0,1-2.68-.26,3.58,3.58,0,0,1-1.91.86c-.8-.06-3-.79-3.49-2.12s-.4-2-1-2.72-1.73-1.74-1.19-2.52c0,0,.37-1.78,3-1l2.2.61a.66.66,0,0,0,.78-.44h0v0a.64.64,0,0,0-.08-.65.38.38,0,0,1,0-.46,7.32,7.32,0,0,1,2.44-2.18c.57-.08-.07.22-.07.22a4.45,4.45,0,0,0-1.57,1.51c-.53.92.31.33.44.24l0,0c.22-.13,1.95-1.14,3.24-.77s1.43.51,1.43.51,0,.24-.82-.09a6.43,6.43,0,0,0-2.73.17h0c-.22.08-1.83.66-1.21.94a18.08,18.08,0,0,0,2,.7l.08,0c.12,0,.54.11.43.22s-.61.08-.61.08l-1.92-.46s-.84,0-.23.53A14.65,14.65,0,0,0,206,53.72s.52.28.34.31-2.47-.66-2.47-.66L199.08,52s-2.69-.94-1.87,2a1.18,1.18,0,0,0,.56.81.67.67,0,0,1,.35.37c.11.32.32,1,.74,2.23.54,1.71,3.17,2,4,2a.66.66,0,0,0,.47-.18l.66-.63.06-.05h.43a1.51,1.51,0,0,0,.49.21c1,.37,2.67-.7,4.27-1.72a5.64,5.64,0,0,0,2.2-3.12c.09-.32.27-.21.27-.21.31.39-.18,1.2-.18,1.2.69-.19,1.34-1.52,1.34-1.52C213.36,53.76,212.52,54.85,211.86,55.52Z"/><path class="cls-1" d="M192.05,51.42s4.24.64,4.79,2.23l-.32.09s-2.92-2.16-4.67-2Z"/><path class="cls-1" d="M191.43,53.2s.21,4.24,2.43,5.67.92.37.92.37a6.6,6.6,0,0,1-3.11-5.37S191.54,53.09,191.43,53.2Z"/><path class="cls-1" d="M220,38a16.32,16.32,0,0,1-.26,3.65c-.32.72.37-.3.37-.3s.93-2.26.37-3.27S220,38,220,38Z"/><path class="cls-1" d="M217.55,36.94A9.06,9.06,0,0,1,217,39.3a5.28,5.28,0,0,1-.45,1c-.42.66.41-.24.41-.24s1.3-2.49.9-3.57C217.69,35.94,217.58,36.57,217.55,36.94Z"/><path class="cls-8" d="M239.92,54.9A3.56,3.56,0,0,1,238,57.64c-1.05.5-1.91.25-2.13-1.63-.47-4.15-4.53-7.15-6.64-8.44a3.57,3.57,0,0,0-2.41-.49c-1.89.27-5.5.41-6-2.33-.32-1.81,1.25-3.42,2.95-4.59a3.63,3.63,0,0,1,3-.51c3.78,1,8,2.66,10.19,5.25A13.32,13.32,0,0,1,239.92,54.9Z"/><path class="cls-8" d="M238,44.06s.33.08,1,.89c0,0,4.45-.74,6.11-1.81,0,0,.87-.74-.4-.49a24.3,24.3,0,0,1-3.39,1.18A17.24,17.24,0,0,1,238,44.06Z"/><path class="cls-33" d="M209.65,27.86a29,29,0,0,1-9.15,10.68c-6.62,4.83-10.09,5.72-10.09,5.72a29.57,29.57,0,0,1-5.66-6.75A13.56,13.56,0,0,1,187.18,21c6.65-6.59,14.78-.71,16.09.17A51.3,51.3,0,0,1,209.65,27.86Z"/><g class="cls-10"><path class="cls-11" d="M204.72,32.73a15.28,15.28,0,0,1-6.42,6c-4.79,2.58-6.85,3-6.85,3s-3.54-1.39-4.67-2.77c-3.34-4.11-5.24-14.16,0-17,2-1.11,9.53-.06,17.83,6.34C205.66,29.07,204.15,32.09,204.72,32.73Z"/></g><g class="cls-12"><path class="cls-13" d="M204,33.23a15.2,15.2,0,0,1-6.42,6c-4.79,2.59-6.85,3-6.85,3s-3.54-1.39-4.67-2.78c-3.33-4.11-4.6-12.83.13-16.48s15.44,4.82,16.48,5.42S203.42,32.59,204,33.23Z"/></g><path class="cls-14" d="M204.31,33.87a15.22,15.22,0,0,1-6.42,6c-4.8,2.58-6.86,3-6.86,3a47.5,47.5,0,0,1-5.31-4c-2.88-3-4-10.61.74-14.26s11.63,4.27,12.65,4.88A43.89,43.89,0,0,1,204.31,33.87Z"/><path class="cls-1" d="M212.41,30.17a29.92,29.92,0,0,1-3-2.6,10.35,10.35,0,0,0-7.1-3.34,26.25,26.25,0,0,0-7.15,1.09s-.82.49-3.17-.19-5.1-2.07-6.51,2.4A11,11,0,0,0,187.39,38c1.7,1.89,2.51,2.67,2.84,2.63,0,0-.82,1.46-.48,2.14a5.57,5.57,0,0,0,.74,1.12l1.72,1.92Z"/><path class="cls-15" d="M200.6,38l-8.73,6.73-1.2-1.34s-.19-.35-.42-.83.24-1.43.24-1.43h0A23.1,23.1,0,0,0,200.6,38Z"/><path class="cls-16" d="M212.16,30.14l-7.88,6.25h0a32.18,32.18,0,0,1-14.13,4.38h0c-.32,0-1.11-.71-2.76-2.57a10.78,10.78,0,0,1-1.91-10.15c1.38-4.37,4.08-3,6.35-2.35s3.09.19,3.09.19a25,25,0,0,1,7-1,11,11,0,0,1,7.18,3A22.49,22.49,0,0,0,212.16,30.14Z"/><path class="cls-1" d="M191.37,25s.37,1.61-.72,2.11-1.39.4-3.2-.23c0,0-.89-.4-1.26-.25s.37-1.48.37-1.48a3.27,3.27,0,0,1,3.49-.55C192.34,25.42,191.37,25,191.37,25Z"/><path class="cls-17" d="M200.65,19.42a7.39,7.39,0,0,1-8.21.35,5.56,5.56,0,0,0-4-.38A10,10,0,0,1,200.65,19.42Z"/><path class="cls-18" d="M201,19.83a.49.49,0,0,0-.3.64.31.31,0,0,0,.05.1c.41.64,1.29,1.86,1.85,1.42.75-.57,1.08-1.28.45-1.52S201.66,19.62,201,19.83Z"/><path class="cls-19" d="M204.77,29.56a2,2,0,0,0-.65-2.72l-.25-.13c-.91-.37-3.39.15-4.4.37a3.38,3.38,0,0,0-.42.13,2.92,2.92,0,0,0,.45,5.49,4.45,4.45,0,0,0,3.29-.92A5.62,5.62,0,0,0,204.77,29.56Z"/><path class="cls-20" d="M200,30.33c-.11.4-.7.9-1.11.78a.74.74,0,0,1-.52-.91v0c.12-.4.63-.82,1-.7a.71.71,0,0,1,.59.81Z"/><path class="cls-11" d="M199.83,30a.43.43,0,0,1-.45.41h0c-.27,0-.42-.37-.4-.57,0-.39.29-.4.57-.32A.44.44,0,0,1,199.83,30Z"/><path class="cls-21" d="M189.43,25a.33.33,0,0,1-.36.29h0c-.23,0-.35-.29-.34-.45s.23-.3.46-.23A.35.35,0,0,1,189.43,25Z"/><path class="cls-21" d="M188.47,24.72a.13.13,0,0,1-.15.12h0c-.09,0-.14-.12-.14-.18s.1-.13.2-.1A.14.14,0,0,1,188.47,24.72Z"/><path class="cls-22" d="M186.29,30.14s-.7,4.19,1.32,7a13.37,13.37,0,0,0,2.26,2.55,2.43,2.43,0,0,0,1.64.55,11.28,11.28,0,0,0,4.35-1.07c2.46-1.22,3-2.69,2.9-3.22s-4.64,1.36-5.29,1.26-2.78.11-4.32-1.64C187.45,33.65,187.05,30.48,186.29,30.14Z"/><path class="cls-1" d="M199.46,34.08c-.11.32-.22.63-.3.94A6,6,0,0,0,199,36a2.32,2.32,0,0,0,0,.83,1,1,0,0,0,.11.28.55.55,0,0,0,.25.2h0a.19.19,0,0,1,.1.25h0a.18.18,0,0,1-.1.09.76.76,0,0,1-.7,0,1,1,0,0,1-.43-.57,2.36,2.36,0,0,1,0-1.18,5,5,0,0,1,.91-1.93.19.19,0,0,1,.26,0,.19.19,0,0,1,.07.21Z"/><path class="cls-1" d="M215.43,32a2.13,2.13,0,0,0-.06-1.49,4.08,4.08,0,0,0-.55-1,16.64,16.64,0,0,0-3.56-3.34c-1.23-.62-1.37-.1-1.48.06a64.73,64.73,0,0,1-9.62,10.69,81.63,81.63,0,0,1-10.46,6.68,1.51,1.51,0,0,0-.94,1.92l0,.05a10.81,10.81,0,0,0,3.05,3.94,4.33,4.33,0,0,0,2.71.81c.56-.18,6.91-1.79,11.53-5.46a27.87,27.87,0,0,0,6.64-7A28.31,28.31,0,0,0,215.43,32Z"/><path class="cls-11" d="M214.92,32.46A3,3,0,0,0,214.7,30l-.18-.25a14.54,14.54,0,0,0-3.26-3.05c-1.13-.57-1.25-.08-1.36.05s-4.59,6.65-9.17,10.43c-2.15,1.78-8.71,5.68-9.89,6.51a2.17,2.17,0,0,0-1.07,1.4,1,1,0,0,0,.1.57,9.53,9.53,0,0,0,2.72,3.46,5,5,0,0,0,3.66.18,38.37,38.37,0,0,0,10.25-5.49,25.2,25.2,0,0,0,6.08-6.43A24.19,24.19,0,0,0,214.92,32.46Z"/><path class="cls-23" d="M210.33,26.34a.56.56,0,0,0-.31-.09c-.13,0-2.27,3-2.39,3.18h0l-4.27,4.82h0l-3.68,3.38h0l-4.17,2.81L191.41,43h0l-1.32,1-.46.53-.11.21a.17.17,0,0,0,.07.24.16.16,0,0,0,.15,0A30.4,30.4,0,0,0,195,42.41a108.73,108.73,0,0,0,9.56-7.27A33.62,33.62,0,0,0,209,29.67a19.85,19.85,0,0,0,1.63-3.3A1.43,1.43,0,0,0,210.33,26.34Z"/><path class="cls-24" d="M205.8,44.29A43.51,43.51,0,0,1,199.23,48c-.47.14-3.41.25-4.15-.24a9,9,0,0,1-2.59-3.15.89.89,0,0,1-.1-.53,1.93,1.93,0,0,1,1-1.25c.84-.56,4.65-2.57,7.27-4.26a8.91,8.91,0,0,0-.18,2.91,4.83,4.83,0,0,0,.65,1.49,3.19,3.19,0,0,0,.94,1A5,5,0,0,0,205.8,44.29Z"/><path class="cls-23" d="M203.28,45.94c-2.95,1.57-5.48,2.77-5.81,2.87s-2.66.31-3.4-.17a9,9,0,0,1-2.59-3.16.78.78,0,0,1-.1-.52,1.91,1.91,0,0,1,1-1.26c.84-.56,4.55-2.67,7.17-4.36a9.57,9.57,0,0,0-.09,3,3.88,3.88,0,0,0,.37,1.33,3.64,3.64,0,0,0,.83,1A8.53,8.53,0,0,0,203.28,45.94Z"/><path class="cls-25" d="M200.72,38.29a24.21,24.21,0,0,1-2.49,2.14c-.43.33-.88.65-1.33,1s-.91.62-1.37.9c-.93.59-1.89,1.12-2.86,1.63a32.13,32.13,0,0,1-3,1.35l-.15-.34c1-.46,1.93-1,2.88-1.49s1.85-1.11,2.78-1.67l1.37-.87,1.36-.89c.92-.59,1.84-1.17,2.79-1.72Z"/><polygon class="cls-25" points="204.59 35.27 203.5 36.11 203.45 36.06 204.32 35.01 204.59 35.27"/><path class="cls-26" d="M205.74,33.76c-.4.45-.83.92-1.29,1.39"/><path class="cls-25" d="M210.7,26.36a15.73,15.73,0,0,1-.91,2.06,20.83,20.83,0,0,1-1.11,1.95,21.8,21.8,0,0,1-1.29,1.85,18.11,18.11,0,0,1-1.51,1.65l-.28-.25c.42-.6.87-1.19,1.3-1.79s.85-1.19,1.26-1.8.79-1.24,1.17-1.85a21.3,21.3,0,0,0,1-1.94Z"/><path class="cls-23" d="M214.9,30.36s-1.18,5-3.07,7.34.51,0,.51,0a34.31,34.31,0,0,0,2.6-5.35C215.31,30.8,214.9,30.36,214.9,30.36Z"/><path class="cls-1" d="M212.15,35.05s-1.05-1.16-2-1-2.63,1.26-2.6,2.74a2.12,2.12,0,0,0,1.18,1.93,2.15,2.15,0,0,0,1.43.2c1.56-.34,5.87-1.42,8.47-3.59a3.9,3.9,0,0,0,.67-.74A1.63,1.63,0,0,0,220.9,34a1.4,1.4,0,0,0,.19-1.19A1.78,1.78,0,0,0,220,31.51a1.37,1.37,0,0,0-1.71.58s-.34.57-.19.9S215.21,35.21,212.15,35.05Z"/><path class="cls-27" d="M212.19,35.19s-1-1-1.86-.91a2.71,2.71,0,0,0-2.2,2.4,1.78,1.78,0,0,0,1,1.66,2.55,2.55,0,0,0,1.52.2,20.66,20.66,0,0,0,7.38-3.1,8.67,8.67,0,0,0,1.26-1.11,1.47,1.47,0,0,0,1.46-.5,1.42,1.42,0,0,0,.1-1.14,1.55,1.55,0,0,0-1-1,1,1,0,0,0-.79,0,1.32,1.32,0,0,0-.77.83.79.79,0,0,0,0,.48C218.41,33.23,215.43,35.46,212.19,35.19Z"/><polygon class="cls-1" points="240.39 32.11 240.33 32.17 240.32 32.11 240.39 32.11"/><path class="cls-28" d="M230.92,36.45a2.09,2.09,0,0,1-.11,1.51c-.37,1-.47,1.35-.47,1.35a23.79,23.79,0,0,0-6.81-1.7,3.62,3.62,0,0,1-3.45-2.69,2,2,0,0,0,1.28-2.65,1.89,1.89,0,0,0-2.69-1s-.85.63-.74,1.29-1.29.82-1.29.82-1.2-.34-1.28-.92a13.64,13.64,0,0,1,.19-2.3s.58-1.28,2.91-.94a30.27,30.27,0,0,1,6.9,2.41C225.87,32,229.25,33.39,230.92,36.45Z"/><path class="cls-29" d="M230.79,37a57.19,57.19,0,0,0-7.7-5.28c-1.3-.65-2.22-1-6.11-1.65-1.48-.22.42-.63.42-.63a18.67,18.67,0,0,1,5.36,1.29c2.76.93,6.34,3.17,7.6,5.15C231,36.78,230.79,37,230.79,37Z"/><path class="cls-30" d="M232.22,37.84a.36.36,0,0,0-.18-.34,1.58,1.58,0,0,0-.62-.28,10.36,10.36,0,0,0-.82,2.09.21.21,0,0,0,.12.27l.62.28a.21.21,0,0,0,.28-.1A5,5,0,0,0,232.22,37.84Z"/><path class="cls-30" d="M228.66,34.43s-1.53-1.56-1.78-1.41.27.74.27.74S228.67,34.87,228.66,34.43Z"/><path class="cls-30" d="M225.69,32.34c-.17,0-.27.19-.24.26a2.64,2.64,0,0,0,.5.38.4.4,0,0,0-.08-.56A.37.37,0,0,0,225.69,32.34Z"/><path class="cls-2" d="M225.71,34.22c-.17,0-1.3,1.22-1,2.06s.34-.06.37-.18v0c0-.12.32-1.11.68-1.27a.3.3,0,0,0,0-.58Z"/><path class="cls-2" d="M226.9,35.12s-1,1.12-.77,1.69.33.15.33.15a2.65,2.65,0,0,1,.31-.91C227,35.56,227.7,34.87,226.9,35.12Z"/><path class="cls-2" d="M228.38,36a2.85,2.85,0,0,0-.79,1c-.19.51.37.37.37.37s.47-1.07.55-1.17S228.81,35.92,228.38,36Z"/><path class="cls-1" d="M225.54,34.13c-.17,0-1.3,1.22-1,2.06s.34-.06.37-.19v0c0-.12.32-1.12.68-1.27a.3.3,0,0,0,0-.58Z"/><path class="cls-1" d="M226.74,35.05s-1,1.11-.77,1.68.32.15.32.15a2.88,2.88,0,0,1,.31-.91C226.86,35.48,227.54,34.79,226.74,35.05Z"/><path class="cls-1" d="M228.21,36a3.08,3.08,0,0,0-.79,1,.33.33,0,0,0,.35.48s.5-1.17.58-1.27S228.64,35.85,228.21,36Z"/><path class="cls-11" d="M224.89,36.59c0-.05-.21,0-.32-.26a.78.78,0,0,1-.07-.17.5.5,0,0,0,.13.37C224.72,36.62,224.85,36.64,224.89,36.59Z"/><path class="cls-11" d="M226.36,37.1c0-.05-.21,0-.32-.27l-.07-.16a.48.48,0,0,0,.14.37A.24.24,0,0,0,226.36,37.1Z"/><path class="cls-11" d="M228,37.47s-.37.05-.47-.17-.1-.21-.1-.21a.41.41,0,0,0,.12.37A.51.51,0,0,0,228,37.47Z"/><path class="cls-1" d="M211.87,34.92s-2.67.34-2.45,1.79a2.46,2.46,0,0,0,1,1.86l.24.07A11.38,11.38,0,0,1,210,37.4c-.05-.22-.58-1.33.57-1.77s1.48-.58,1.48-.58Z"/><path class="cls-11" d="M218.58,32.7s-1.85,2.6-6.35,2.67l-.5-.22-1,.45s-.43.92,1.85.43,4.85-1.62,5.39-2.23S219.1,32.8,218.58,32.7Z"/><path class="cls-1" d="M218.28,32.94a.74.74,0,0,1,1.05,0l.1.12a1.08,1.08,0,0,1,.07,1.34l-.18-.08s.46-1.61-1.07-1.27Z"/><path class="cls-1" d="M218.9,34.93a3.62,3.62,0,0,0-.07-.93,1,1,0,0,0-.81-.53c-.37,0-.34.11-.34.11l.32,0a1,1,0,0,1,.69,1c0,.77.2.4.2.4"/><path class="cls-1" d="M218.25,35.42a1.34,1.34,0,0,0-.48-1.34c-.67-.41-.69-.21-.69-.21l-.08.07s.92.34,1,.71.12.83.12.83Z"/><path class="cls-1" d="M212.93,35.08h-.15s-1.37.53-1.19,1.65a3,3,0,0,0,.56,1.51l.32-.08-.53-1.41a1.4,1.4,0,0,1,1-1.58Z"/><path class="cls-1" d="M214,37.69a.67.67,0,0,1-.74-.42,1.93,1.93,0,0,1,0-1.58c.26-.59.31-.61.31-.61l.09,0a5.93,5.93,0,0,0-.28,1.38c0,.37.19,1,.61,1.19l0,.09"/><path class="cls-1" d="M215.86,36.89l-.25.1a1.53,1.53,0,0,1-.7-.74,3.68,3.68,0,0,1-.08-1.44l.19-.07A5.7,5.7,0,0,0,215,36,4.18,4.18,0,0,0,215.86,36.89Z"/><path class="cls-1" d="M215.9,34.47a2.28,2.28,0,0,0,.28,1.17,2.72,2.72,0,0,0,.54.72c.18.12.32-.13.32-.13s-.79-.51-.9-1.08a3.36,3.36,0,0,1-.08-.71Z"/><path class="cls-1" d="M216.64,34.13s.64,1.93,1.05,1.67l.05,0a8.07,8.07,0,0,1-.64-1c-.11-.27-.34-.71-.34-.71Z"/><path class="cls-11" d="M218.46,32.34s.37-.57.85-.52a1.44,1.44,0,0,1,1.24.87c.13.44-.08,1.16-.23,1.2s-.2-.81-.2-.81a4,4,0,0,0-.37-.63,1,1,0,0,0-.89-.18C218.66,32.34,218.49,32.45,218.46,32.34Z"/><path class="cls-11" d="M211.23,34.66a1.91,1.91,0,0,0-1.2-.16,2.86,2.86,0,0,0-1.6,1.32,1.65,1.65,0,0,0-.07,1.29c.18.37.42-.61.42-.61s.72-1.65,1.43-1.68C211.18,34.81,211.49,34.79,211.23,34.66Z"/></g><path class="cls-1" d="M174,18.94s-.86-3.66,4.19-2.81,13,3.21,17.43,9.85l.26.6a1,1,0,0,0,.42.47l.67.37a.75.75,0,0,1,.38.74,7.64,7.64,0,0,1-1.27,3.29,4.18,4.18,0,0,1-2.6.93l-15.38-3.07C165.82,26.58,174,18.94,174,18.94Z"/><path class="cls-2" d="M174.37,19.59s-.79-3.54,4-2.76,12.42,3,16.55,9.41l.25.57a.84.84,0,0,0,.39.46l.64.37a.7.7,0,0,1,.34.74,7.65,7.65,0,0,1-1.23,3.2,4,4,0,0,1-2.49.92l-14.65-2.86C166.5,27.08,174.37,19.59,174.37,19.59Z"/><path class="cls-34" d="M168.41,14.47A42.23,42.23,0,0,1,155.13,30c-9.61,7-13.63,8.3-13.63,8.3s-5.11-4.87-7.12-7.95S126.16,14,135.82,4.47s21.45-1,23.34.26C161.25,6.15,167.44,13,168.41,14.47Z"/><path class="cls-1" d="M173.37,21.68a5.47,5.47,0,0,1,3.79,3.65.3.3,0,0,0,.26.23c.62.09,2.44.46,2.92,2a.3.3,0,0,0,.27.23c1.57.08,11.15.78,17.77,4.95,2.35,1.35,4.11,2.57,4.48,2.84a.34.34,0,0,0,.17,0,26.38,26.38,0,0,0,5.94-.53c2.72-.64,2.4-1,3.91-1.39a1.86,1.86,0,0,1,2.13.57,2.32,2.32,0,0,1,.23.93,3.31,3.31,0,0,1-1.7,2.86,35.7,35.7,0,0,1-5.36,2.67c-1,.42-.85.13-.85.13a11.64,11.64,0,0,1,1.56,6.1c-.27,7.17-2.59,10.2-2.85,10.5l0,.05a11.8,11.8,0,0,1-5.74,5.39s-1.27.5-.09.53a8.83,8.83,0,0,1,6.21,2.69,7.91,7.91,0,0,1,1.89,4.75,5.16,5.16,0,0,1-.17,1.66,12,12,0,0,1-.77,2.35c-.37.64-.92,1-1.24,1a.3.3,0,0,0-.32.16,2.87,2.87,0,0,1-1.35,1.55c-.86.29-3.24.34-3.93-.93a.31.31,0,0,0-.27-.17c-.61,0-2.56,0-3-1.3a5.29,5.29,0,0,1-.41-1.56.3.3,0,0,0-.32-.29.26.26,0,0,0-.15,0c-.51.32-1.18.64-1.54.43-.67-.37-1.73-1.2-1.81-1.91q0-.44-.06-.66a.31.31,0,0,0-.3-.29,1.52,1.52,0,0,1-1.08-.35.26.26,0,0,0-.2-.1,9.76,9.76,0,0,1-3.61-.6c-1.21-.62-4.7-2.14-5.19-3.62l-.24-.57a.33.33,0,0,0-.23-.18,74.38,74.38,0,0,1-12-3c-4.36-1.72-8.06-3.11-8.37-3.22l0,0-.24-.13a.3.3,0,0,0-.41.1c-.25.42-1.06,1.11-3.52.52a15.09,15.09,0,0,1-5.68-2.93.3.3,0,0,0-.4,0c-.55.48-2.18,1.74-3.44,1.32a14,14,0,0,1-3.87-2.79.3.3,0,0,0-.27-.08c-.47.1-1.93.31-2.43-.42s-1-2.63-.06-3.55l.49-.57a1.2,1.2,0,0,1-1.49-.88,2.74,2.74,0,0,1,.7-3.05,3,3,0,0,1,1.26-.45,4.19,4.19,0,0,0,1-.33c.37-.21,19.43-11.94,29.78-24.24A.3.3,0,0,1,173.37,21.68Z"/><path class="cls-4" d="M173.56,22.67a5.26,5.26,0,0,1,3.64,3.51.31.31,0,0,0,.25.22c.59.08,2.34.43,2.8,1.93a.31.31,0,0,0,.27.22c1.5.08,10.71.74,17.06,4.76,2.25,1.29,3.94,2.47,4.31,2.72a.22.22,0,0,0,.16,0,19.06,19.06,0,0,0,5.56-.15,19.32,19.32,0,0,0,4.19-1.21,2.4,2.4,0,0,1,2.5,0,1.09,1.09,0,0,1,.17,1.26c-.16.43-.65,1.2-2.23,2.23a33.19,33.19,0,0,1-5.44,2.39c-1,.4-.64.56-.64.56A11.23,11.23,0,0,1,207.67,47c-.27,6.89-2.28,9.67-2.52,10,0,0-.13.23-.14.25-.18.34-.82,3-5.2,5.47,0,0-2.56,1.32-1.43,1.34s4.77-.56,6.84,1.67a7.68,7.68,0,0,1,2.23,4.15,5.26,5.26,0,0,1,0,1.68c-.21.77.09,1.19-.74,2.39a2.55,2.55,0,0,1-1.75.85.29.29,0,0,0-.3.15c-.2.44-.2,1.54-.84,1.76a2.29,2.29,0,0,1-2.88-.81.29.29,0,0,0-.26-.16c-.59,0-2.64.64-3.1-.62a7.66,7.66,0,0,1-.34-2.07c0-.23-1-.4-1.21-.28a2.58,2.58,0,0,1-1.95,0c-.64-.37-.59-.9-.66-1.58,0-.22,0-.43-.06-.64-.25-.74-1.21-.53-1.37-.53a1.4,1.4,0,0,1-1-.34.28.28,0,0,0-.19-.09,9.43,9.43,0,0,1-3.46-.57c-1.17-.6-4.06-1.88-4.53-3.3l-.23-.54a.33.33,0,0,0-.22-.18,79.8,79.8,0,0,1-12-3.09c-4.19-1.66-7.75-3-8-3.1h0l-.69-.3a.59.59,0,0,0-.56.08c-.37.33-.37,1.27-2.75.69A22.37,22.37,0,0,1,151.63,56a.29.29,0,0,0-.37,0c-.54.46-1.83,1.6-2.52,1.55-1.46-.08-3.4-2.38-4.07-3a.29.29,0,0,0-.25-.08c-.45.09-1.55.41-2-.3a2.49,2.49,0,0,1,.37-3.1l.4-.86s-1.2,0-1.35-.53c-.31-1.21,0-2.52.67-2.92a2.77,2.77,0,0,1,1.21-.44,4.34,4.34,0,0,0,.94-.32c.37-.2,18.67-11.47,28.61-23.28A.28.28,0,0,1,173.56,22.67Z"/><path class="cls-5" d="M206.72,74a2.54,2.54,0,0,1-1.75.86.29.29,0,0,0-.3.15c-.2.43-.2,1.54-.84,1.76A2.29,2.29,0,0,1,201,76a.29.29,0,0,0-.26-.16c-.59,0-2.64.64-3.1-.62a7.66,7.66,0,0,1-.34-2.07c0-.22-1-.4-1.21-.28a2.58,2.58,0,0,1-1.95,0c-.64-.37-.59-.9-.67-1.58a4.48,4.48,0,0,0,0-.64c-.25-.74-1.21-.53-1.37-.53a1.49,1.49,0,0,1-1-.34.28.28,0,0,0-.19-.09,9.46,9.46,0,0,1-3.46-.57c-1.17-.6-4.06-1.88-4.53-3.3l-.24-.54a.31.31,0,0,0-.21-.18,78.91,78.91,0,0,1-12-3.1c-4.19-1.65-7.75-3-8-3.09h0l-.69-.34a.65.65,0,0,0-.56.08c-.37.33-.39,1.27-2.76.7a22.37,22.37,0,0,1-6.63-3.23.32.32,0,0,0-.37,0c-.53.46-1.82,1.6-2.53,1.56-1.45-.09-3.39-2.38-4.05-3a.36.36,0,0,0-.26-.07c-.46.09-1.55.41-2-.3a2.47,2.47,0,0,1,.38-3.1l.4-.86s-1.21,0-1.35-.53c-.32-1.21,0-2.53.66-2.93a2.93,2.93,0,0,1,1.21-.43,4.43,4.43,0,0,0,1-.32s6.34,2.8,6.68,8.22c0,0,8.23,3.13,11.61,1.69,3.63-1.55,3.74-2.07,3.77-2.19a5.39,5.39,0,0,1-2,2.36c-1.06.54,19,8.17,22.69,5.69a12.85,12.85,0,0,0,2.18-1.78h0c-1.27,2.56-2.42,6.14.19,7.57,4.25,2.32,5.25,5.63,9.37,4.9s5.06-1.51,5.63-2.85a13.72,13.72,0,0,0,.57-3.85,7.44,7.44,0,0,1,2.1,4,6,6,0,0,1,0,1.69C207.23,72.43,207.54,72.85,206.72,74Z"/><path class="cls-1" d="M196.13,72.71a36.12,36.12,0,0,0,7.18-1.65L205.64,70a19.77,19.77,0,0,1-2.72,1.72,20.16,20.16,0,0,1-6.07,1.49C196.15,73.19,196.13,72.71,196.13,72.71Z"/><path class="cls-6" d="M195.34,70.9c-1.73-.33-10.52.37-7.79-11.41.29-1.26.41-2.41.62-3.39a12.12,12.12,0,0,0-1.45,1l1.08-3.67s-4.12,2.23-4.37,5.8l-.57,1.52L169,56.21s-1.37.13-.18-2.1a23.6,23.6,0,0,0,1.85-5s-.12-3-1.35-3.39-.42,2.19-.42,2.19-.33,2.5-.43,2.06-2.93,5.28-6,4.79-4.08-.74-4.08-.74-.42,2-1.61,1.24-1.67-4.52-3-5-2.38-2-1.73-2,7,2.08,7,2.08l-.12-4s2.46-3.12,2.08-3.24a4.14,4.14,0,0,0-2.69-.49c-1.66.22-2,.94-2.31-1S167.3,33,167.3,33l4-1.79s1.63-1.53,1.52.45c0,0,3.8-6.44,4.55-3.39s1.42,3.62,1.42,3.62l.79-3.14s17.19,1.77,23,8.72c4,4.72,4.77,11.28,3.34,15.24s-4.9,7-5.9,3.13l-.59-1.6s-.37.69-.74.75c0,0,.81,5.85-3.08,8.43s-3.68,3-3.68,3,1-.28,3.95-1.35,6.82-1.83,8.26,1.85S197.08,71.23,195.34,70.9Z"/><path class="cls-7" d="M177.75,29.87C177,27.05,173.47,33,173.47,33c.1-1.82-1.43-.42-1.43-.42l-3.71,1.62s-10.81,6.12-10.5,7.89v.06c-.69.16-.92.12-1.14-1.23-.32-1.93,11.18-8.64,11.18-8.64l4-1.78s1.64-1.53,1.52.45c0,0,3.81-6.44,4.56-3.38s1.41,3.61,1.41,3.61l.8-3.14s17.19,1.77,23,8.73c4,4.72,4.76,11.28,3.34,15.24-1,2.91-3.2,5.32-4.66,4.86a8.33,8.33,0,0,0,3-4.21c1.3-3.64,1.7-10.16-2.09-14.55-5.55-6.45-21.75-8.2-21.75-8.2l-1.92,3.34S178.47,32.7,177.75,29.87Z"/><path class="cls-8" d="M155.2,50.45c1.15.39,1.65,3.5,2.65,4.45a.76.76,0,0,1-1,0c-1.19-.77-1.68-4.52-3-5s-2.35-2.06-1.7-2S159.25,50,159.25,50l-.11-4s1.27-1.62,1.85-2.56a6.82,6.82,0,0,1,1.09.42c.37.11-1.93,3-1.93,3l.13,3.69s-6.06-2-6.67-2S154,50,155.2,50.45Z"/><path class="cls-8" d="M169.37,54.09c-.66,1.24-.46,1.69-.19,1.86l-.11,0s-1.37.12-.19-2.1a23.63,23.63,0,0,0,1.86-5,8.83,8.83,0,0,0-.31-1.85,6.49,6.49,0,0,1,.66,2.56A21,21,0,0,1,169.37,54.09Z"/><path class="cls-8" d="M186.4,54.16a7.22,7.22,0,0,0-2.89,4.76l-.57,1.55L169.45,56h.11l13.12,4.29.53-1.4C183.35,56.66,185.24,55,186.4,54.16Z"/><path class="cls-8" d="M187.65,56.05a.58.58,0,0,1,0,.14l-.82.61.08-.25C187.08,56.41,187.33,56.24,187.65,56.05Z"/><path class="cls-8" d="M194.73,62.85c3.65-2.35,2.85-7.76,2.85-7.76.37-.06.71-.69.71-.69l.56,1.48h0c0,1.86-.37,5.38-3.15,7.23a29.67,29.67,0,0,0-2.76,2c-1.22.4-1.66.52-1.66.52S191.07,65.2,194.73,62.85Z"/><path class="cls-8" d="M195.43,70.59c-1.11-.21-5.21,0-7.2-3,2,2.14,5.32,2,6.3,2.2,1.64.32,9.65-.19,8.27-3.59a3.76,3.76,0,0,0-2.15-2.23,4,4,0,0,1,3.59,2.71C205.68,70.31,197.17,70.93,195.43,70.59Z"/><path class="cls-8" d="M161,43.44a4.1,4.1,0,0,0-1.44,0c-1.56.18-1.88.84-2.18-.87a11,11,0,0,1,1.17-.24,3.93,3.93,0,0,1,2.68.5C161.31,42.81,161.19,43.07,161,43.44Z"/><path class="cls-8" d="M169.41,48.33s-.3,2.31-.4,1.9-2.72,4.86-5.6,4.38-3.87-.7-3.87-.7S159.17,55.76,158,55l-.18-.15a2.82,2.82,0,0,0,.61-1.22s1,.25,4.08.74,5.87-5.24,6-4.79.43-2.06.43-2.06-.82-2.6.41-2.19a2.12,2.12,0,0,1,1.06,1.52,1.27,1.27,0,0,0-.64-.57C168.61,45.92,169.41,48.33,169.41,48.33Z"/><path class="cls-8" d="M169.18,55.93l.26.09A.62.62,0,0,1,169.18,55.93Z"/><path class="cls-8" d="M186.41,54.16a11,11,0,0,1,1.49-1l-1,3.43c-.37.25-.58.42-.58.42l1-3.37A8.2,8.2,0,0,0,186.41,54.16Z"/><path class="cls-8" d="M188.23,67.56c-1.38-1.45-2.14-4-1.12-8.38.26-1.12.36-2.11.53-3l.63-.41c-.21,1-.33,2.13-.62,3.39C186.68,63.32,187.15,65.92,188.23,67.56Z"/><path class="cls-8" d="M198.85,55.88c0-.4,0-.81-.06-1.21.37-.07.74-.74.74-.74l.59,1.6c.26,1,.7,1.55,1.23,1.71-1,.61-2,.35-2.51-1.35Z"/><path class="cls-8" d="M200.64,63.93a11.65,11.65,0,0,0-4.67.85c-3,1.07-3.95,1.35-3.95,1.35s-.09-.19.92-1l2.05-.7C196.81,63.77,199,63.27,200.64,63.93Z"/><path class="cls-1" d="M201.25,52.54a10.52,10.52,0,0,1,.08,2.1,1,1,0,0,1-.21.59,12,12,0,0,0-3-2.77c-1.64-1-.55,0-.55,0s3.94,3,3.42,5.77-3,5.41-4.33,6.51a13.06,13.06,0,0,1-2.94,1.75s-.74.55.29.17a11.56,11.56,0,0,0,3.45-1.85c.75-.74-.32,1.08-.32,1.08s0,.29.51-.29a7.19,7.19,0,0,0,.87-1.81L200,62.25s2.49-3.53,1.78-5.94a3.66,3.66,0,0,1-.18-.81A4.78,4.78,0,0,0,201.25,52.54Z"/><path class="cls-1" d="M202.81,36.5s3.65,4.5,4.11,5.94.83-.41.83-.41-1.58-4.05-3.93-5.7S202.81,36.5,202.81,36.5Z"/><path class="cls-1" d="M169.77,51.25a34.86,34.86,0,0,1-6.61,5.09,3.18,3.18,0,0,1-3.48-.34,4.62,4.62,0,0,1-2.49,1.11c-1.05-.09-3.93-1-4.55-2.76s-.53-2.64-1.35-3.55-2.25-2.27-1.55-3.27c0,0,.5-2.33,3.86-1.37,1.23.37,2.17.62,2.86.8a.87.87,0,0,0,1-.57h0v0a.85.85,0,0,0-.11-.84.52.52,0,0,1-.07-.6c.27-.55,2.45-2.74,3.19-2.85s-.09.29-.09.29a5.75,5.75,0,0,0-2.06,2c-.68,1.18.41.42.58.3l.06,0c.27-.17,2.53-1.49,4.22-1s1.85.66,1.85.66,0,.32-1.08-.11-3.24.15-3.54.22h-.07c-.29.11-2.39.86-1.59,1.23a26.75,26.75,0,0,0,2.6.92l.09,0c.16,0,.71.14.56.28s-.79.11-.79.11l-2.46-.59s-1.09,0-.3.69a18.69,18.69,0,0,0,3.71,1.88s.69.37.44.4-3.22-.86-3.22-.86l-6.26-1.74s-3.52-1.23-2.45,2.67a1.54,1.54,0,0,0,.74,1.06.85.85,0,0,1,.45.48c.15.42.42,1.25.94,2.91.71,2.23,4.13,2.58,5.26,2.63a.81.81,0,0,0,.61-.23l.86-.81.07-.08h.56a1.78,1.78,0,0,0,.65.28c1.3.49,3.48-.92,5.56-2.24a7.17,7.17,0,0,0,2.87-4.08c.12-.44.37-.28.37-.28.37.52-.23,1.56-.23,1.56.89-.24,1.74-2,1.74-2C171.73,49,170.64,50.37,169.77,51.25Z"/><path class="cls-1" d="M144,45.9s5.53.84,6.23,2.92l-.41.11s-3.8-2.8-6.08-2.57Z"/><path class="cls-1" d="M143.15,48.23s.27,5.52,3.17,7.38,1.19.47,1.19.47-3.58-1.8-4-7C143.46,49.08,143.29,48.08,143.15,48.23Z"/><path class="cls-1" d="M180.34,28.46s.08,3.82-.33,4.76.47-.37.47-.37,1.2-3,.47-4.26S180.34,28.46,180.34,28.46Z"/><path class="cls-1" d="M177.18,27a11.76,11.76,0,0,1-.66,3.09,7.56,7.56,0,0,1-.6,1.29c-.55.87.53-.31.53-.31s1.7-3.25,1.18-4.66C177.37,25.73,177.22,26.56,177.18,27Z"/><path class="cls-8" d="M206.34,50.45A4.65,4.65,0,0,1,203.8,54c-1.37.65-2.49.33-2.77-2.12-.62-5.41-5.92-9.32-8.66-11a4.68,4.68,0,0,0-3.14-.65c-2.46.37-7.17.54-7.81-3-.42-2.36,1.63-4.45,3.85-6a4.73,4.73,0,0,1,3.92-.68c4.92,1.32,10.44,3.47,13.28,6.85A17.39,17.39,0,0,1,206.34,50.45Z"/><path class="cls-8" d="M203.82,36.32s.44.09,1.25,1.16c0,0,5.78-1,8-2.37,0,0,1.13-1-.52-.64A33,33,0,0,1,208.11,36,23.69,23.69,0,0,1,203.82,36.32Z"/><path class="cls-35" d="M166.9,15.21A38.1,38.1,0,0,1,155,29.13c-8.62,6.29-13.14,7.44-13.14,7.44a38,38,0,0,1-7.38-8.79,17.66,17.66,0,0,1,3.16-21.56c8.67-8.58,19.29-.92,21,.23C160.46,7.72,166,13.91,166.9,15.21Z"/><g class="cls-10"><path class="cls-11" d="M160.47,21.54s-2.12,4.45-8.37,7.82-8.91,3.89-8.91,3.89-4.61-1.81-6.08-3.62c-4.36-5.35-6.83-18.45,0-22.18,2.65-1.44,12.42-.08,23.23,8.27C161.7,16.78,159.73,20.71,160.47,21.54Z"/></g><g class="cls-12"><path class="cls-13" d="M159.51,22.2s-2.12,4.45-8.37,7.82-8.93,3.89-8.93,3.89-4.61-1.82-6.07-3.62c-4.36-5.36-6-16.72.16-21.48s20.13,6.29,21.48,7S158.77,21.37,159.51,22.2Z"/></g><path class="cls-14" d="M159.93,23s-2.12,4.46-8.37,7.82-8.93,3.89-8.93,3.89a63.39,63.39,0,0,1-6.93-5.17c-3.75-3.91-5.19-13.82,1-18.58s15.14,5.57,16.49,6.33A56.71,56.71,0,0,1,159.93,23Z"/><path class="cls-17" d="M155.16,4.21a9.62,9.62,0,0,1-10.69.44c-3.28-1.29-5.2-.49-5.2-.49S146.4-1.89,155.16,4.21Z"/><path class="cls-18" d="M155.62,4.73a.66.66,0,0,0-.4.84.51.51,0,0,0,.07.15c.54.84,1.69,2.41,2.43,1.86,1-.75,1.4-1.68.58-2C157.65,5.35,156.48,4.47,155.62,4.73Z"/><path class="cls-36" d="M163.17,12.21s-1.06,1.15-.53,1.79c.29.34-.07.48-.45.53a2.52,2.52,0,0,1-1.3-.19c-.26-.11-.51-.26-.54-.44-.07-.39.6-1.55,1.94-2.32S163.17,12.21,163.17,12.21Z"/><path class="cls-1" d="M162.64,14.12s-1.74.76-2.63,0,.45-.54.45-.54-1.31,0-1.56-.23-1.2-.49-.71-.62,1.94-1.29,3.65,0S162.64,14.12,162.64,14.12Z"/><path class="cls-1" d="M163.16,14.27a6.54,6.54,0,0,0-6.18-.54,36.08,36.08,0,0,0-7.59,5.19s-1.85,10.31,2.6,9,11.44-9.45,11.44-9.45A2.84,2.84,0,0,0,163.16,14.27Z"/><path class="cls-37" d="M162.41,14.32a7.09,7.09,0,0,0-5.83.2C153.15,16,149,19.71,149,19.71s-1.92,12.39,2.53,11.13S163,19.34,163,19.34,165.39,15.81,162.41,14.32Z"/><path class="cls-1" d="M154.28,21.4s-4.4-6.46-7.05-6.91c-3.62-.62-12.88,2.47-13.25,9a9.29,9.29,0,0,0,5,9Z"/><path class="cls-38" d="M153.94,21.74s-4.3-6-6.94-6.46c-3.62-.62-12.33,2.11-12.69,8.63s9.62,12.51,9.62,12.51l7.6-5.6L151,29.68a4.49,4.49,0,0,1-.28-3.26A6.94,6.94,0,0,1,152.07,24Z"/><path class="cls-1" d="M152.66,19s3.47-.53,2.48,1.89-3,1.72-3,1.72S149.86,20.67,152.66,19Z"/><path class="cls-38" d="M152.12,19.39s3.23-.2,2.38,1.79a2.19,2.19,0,0,1-2.5,1.54S149.54,20.67,152.12,19.39Z"/><path class="cls-39" d="M150.33,26.71s-6.3,4.38-8.59,1.66a17.29,17.29,0,0,1-2.73-4.8,5.86,5.86,0,0,1-.26-3.24,7.42,7.42,0,0,1,.9-2.11c1.07-1.78-1.92.19-1.92.19s-2.63,2.29-3,4.79c-.35,2.1-.55,7.36,5.57,10.25S150.33,26.71,150.33,26.71Z"/><path class="cls-40" d="M153.55,20.77a.39.39,0,0,0-.18-.44c-.27-.15-.68-.29-.81.07-.18.55-.19,1.62.38,1.34A1.48,1.48,0,0,0,153.55,20.77Z"/><path class="cls-37" d="M136.59,24.07a.7.7,0,0,0-.19-.77c-.34-.22-.85-.42-1.09.23-.54,1.47-.48,2.92.3,2.35A3.41,3.41,0,0,0,136.59,24.07Z"/><path class="cls-41" d="M136.45,24.15a.64.64,0,0,0,0-.63c-.19-.17-.5-.32-.7.25-.31.87-.6,2.5-.05,2A4.17,4.17,0,0,0,136.45,24.15Z"/><path class="cls-41" d="M153.51,20.75a.32.32,0,0,0-.15-.35c-.21-.12-.54-.23-.63.05-.15.43-.15,1.28.28,1.06A1.2,1.2,0,0,0,153.51,20.75Z"/><path class="cls-42" d="M153.6,22.36s1.25-1.36.87-2a2.27,2.27,0,0,0-1.33-.84,3,3,0,0,0-1,0l-.32-.25a33,33,0,0,0-2.9-2.91s-.58-.46-.67-.44,1.9,2,2,2.13S152,19.8,152,19.8a4.24,4.24,0,0,1,1.33,0c.44.19,1,.51.86,1.28A3,3,0,0,1,153.6,22.36Z"/><path class="cls-1" d="M157.15,15.48a2.22,2.22,0,0,0-1.54-.4c-.91.14-2.38.59-2.36,2.06,0,1.86,2,1.59,2.47,1.49l.22-.07C156.44,18.36,158.91,17.2,157.15,15.48Z"/><path class="cls-43" d="M155.77,18.3a.66.66,0,0,1-.2.06c-.37.07-1.63.26-2-.66a1.72,1.72,0,0,1-.12-.63c0-1.29,1.26-1.68,2-1.8a2.12,2.12,0,0,1,1.45.33l0,0C158.25,17.31,156.2,18.12,155.77,18.3Z"/><path class="cls-44" d="M155.54,18l-.19.07a2.13,2.13,0,0,1-1.8-.33,1.54,1.54,0,0,1-.12-.63c0-1.29,1.26-1.68,2-1.8a2.12,2.12,0,0,1,1.45.33C157.77,17.07,155.94,17.81,155.54,18Z"/><ellipse class="cls-1" cx="154.49" cy="16.33" rx="0.52" ry="0.47" transform="translate(-0.04 0.43) rotate(-0.16)"/><path class="cls-45" d="M162.48,14s-1.66.71-2.39-.05.43-.42.43-.42-1.17,0-1.36-.29-1-.4-.62-.48a3.2,3.2,0,0,1,3.24.15C162.94,13.69,162.48,14,162.48,14Z"/><path class="cls-38" d="M164.29,11.92s.16,2.7-.94,3.2c-.61.28-.34.8,0,1.2a2.57,2.57,0,0,0,1.56.82,1,1,0,0,0,.94-.23c.42-.54.68-2.88-.11-5.19S164.29,11.92,164.29,11.92Z"/><path class="cls-46" d="M166,17.07a3,3,0,0,1-1.67.09c-.57-.17-1.59-.68-1.65-1.45s.27-.91.27-.91.63-.11.5.47.76,1.12.76,1.12a2.31,2.31,0,0,0,1.75.09c.46-.19.31.28.31.28S166.22,17.12,166,17.07Z"/><path class="cls-36" d="M165.55,11.32s-.29-.44-.25-.1.8,3.39.19,4.28-1.29.43-1.29.43-.23,0-.2.09a1.51,1.51,0,0,0,1.49.44s.37,0,.42-.12C166.5,14.84,165.82,12.1,165.55,11.32Z"/><path class="cls-47" d="M166.15,16.58a.59.59,0,0,1,0,.37c-.09.14-.79.22-.79.22a3.12,3.12,0,0,1-1.81-.44,3.67,3.67,0,0,0,1.07.32c.42,0-.1-.31-.1-.31l-.17-.16A3.1,3.1,0,0,0,166.15,16.58Z"/><path class="cls-1" d="M174.43,20.62a2.73,2.73,0,0,0-.08-1.93,5.39,5.39,0,0,0-.72-1.31c-.6-.74-3-3.54-4.64-4.34s-1.78-.14-1.92.07S161,21.64,154.52,27a102.38,102.38,0,0,1-13.62,8.68,2,2,0,0,0-1.23,2.52l0,.05s1.59,3.55,4,5.15c1.11.74,2.81,1.27,3.53,1s9-2.33,15-7.11a36.22,36.22,0,0,0,8.65-9.14A36.06,36.06,0,0,0,174.43,20.62Z"/><path class="cls-11" d="M173.76,21.19a3.82,3.82,0,0,0-.29-3.26,2.44,2.44,0,0,0-.23-.33c-.55-.67-2.78-3.24-4.25-4s-1.63-.1-1.76.07-6,8.67-12,13.6c-2.81,2.31-11.34,7.39-12.89,8.47A2.86,2.86,0,0,0,141,37.59a1.27,1.27,0,0,0,.13.74,12.53,12.53,0,0,0,3.55,4.5c1,.68,3.16.74,4.76.25a50.52,50.52,0,0,0,13.35-7.17,33.38,33.38,0,0,0,7.93-8.38A31.41,31.41,0,0,0,173.76,21.19Z"/><path class="cls-23" d="M167.8,13.23a.73.73,0,0,0-.41-.12c-.16,0-3,3.92-3.11,4.14h0l-5.56,6.3h0L153.89,28l0,0-5.42,3.57L143.14,35l0,0-1.72,1.27-.59.69-.15.28a.23.23,0,0,0,.09.31.23.23,0,0,0,.2,0,39.11,39.11,0,0,0,6.88-3.36c3.13-2,11.13-8,12.45-9.46a44.68,44.68,0,0,0,5.78-7.13,25.19,25.19,0,0,0,2.12-4.3A1.51,1.51,0,0,0,167.8,13.23Z"/><path class="cls-24" d="M161.88,36.61a57.48,57.48,0,0,1-8.57,4.78c-.61.18-4.45.31-5.4-.32A11.78,11.78,0,0,1,144.53,37a1.14,1.14,0,0,1-.13-.68,2.54,2.54,0,0,1,1.29-1.64c1.08-.74,6.05-3.34,9.46-5.54a11.77,11.77,0,0,0-.23,3.79,6.86,6.86,0,0,0,.84,1.93A4.25,4.25,0,0,0,157,36.08C158.33,37,160.25,36.91,161.88,36.61Z"/><path class="cls-23" d="M158.6,38.76c-3.84,2-7.14,3.61-7.57,3.74-.62.18-3.47.41-4.43-.22a11.84,11.84,0,0,1-3.38-4.11,1.16,1.16,0,0,1-.13-.68,2.51,2.51,0,0,1,1.29-1.64c1.08-.74,5.93-3.49,9.33-5.68a12.33,12.33,0,0,0-.1,3.93,4.08,4.08,0,0,0,1.58,3A10.43,10.43,0,0,0,158.6,38.76Z"/><path class="cls-25" d="M155.25,28.79c-.52.49-1.06,1-1.61,1.41s-1.11.89-1.67,1.32l-.87.63-.86.61c-.59.4-1.19.79-1.79,1.17-1.21.76-2.45,1.46-3.71,2.12a42.9,42.9,0,0,1-3.9,1.79l-.15-.34c1.29-.59,2.53-1.27,3.77-1.94s2.44-1.43,3.64-2.17l1.79-1.15,1.77-1.16,1.78-1.16q.88-.59,1.8-1.14Z"/><polygon class="cls-25" points="160.25 24.81 158.88 25.95 158.82 25.89 159.99 24.55 160.25 24.81"/><path class="cls-26" d="M161.79,22.87c-.51.6-1.07,1.2-1.67,1.81"/><path class="cls-25" d="M168.23,13.22a22.89,22.89,0,0,1-1.2,2.67,27.94,27.94,0,0,1-1.49,2.53c-.54.82-1.07,1.62-1.68,2.38a25.2,25.2,0,0,1-1.92,2.2l-.28-.24,1.72-2.32c.29-.37.56-.78.84-1.17s.55-.79.81-1.18c.53-.81,1-1.63,1.52-2.46s.93-1.68,1.33-2.54Z"/><path class="cls-23" d="M173.74,18.47s-1.54,6.44-4,9.56.66,0,.66,0,2.92-5,3.36-7S173.74,18.47,173.74,18.47Z"/><path class="cls-1" d="M170.15,24.57s-1.37-1.49-2.59-1.34-3.42,1.65-3.38,3.57a2.81,2.81,0,0,0,3.4,2.75c2-.43,7.65-1.85,11-4.67a4.78,4.78,0,0,0,.86-1,2.14,2.14,0,0,0,2.08-.74,1.81,1.81,0,0,0,.24-1.55,2.3,2.3,0,0,0-1.43-1.67,1.78,1.78,0,0,0-2.22.77s-.45.74-.26,1.16S174.14,24.78,170.15,24.57Z"/><path class="cls-27" d="M170.19,24.76s-1.33-1.34-2.43-1.19-2.9,1.4-2.87,3.12a2.36,2.36,0,0,0,1.35,2.18,3.4,3.4,0,0,0,2,.24,26.76,26.76,0,0,0,9.62-4,11.23,11.23,0,0,0,1.65-1.49,1.9,1.9,0,0,0,1.89-.65,1.8,1.8,0,0,0,.13-1.48,2,2,0,0,0-1.29-1.33,1.29,1.29,0,0,0-1,0,1.68,1.68,0,0,0-1,1.08.94.94,0,0,0-.07.62C178.32,22.2,174.43,25.11,170.19,24.76Z"/><polygon class="cls-1" points="206.95 20.74 206.87 20.81 206.86 20.75 206.95 20.74"/><path class="cls-28" d="M194.61,26.4a2.7,2.7,0,0,1-.13,2c-.49,1.34-.62,1.76-.62,1.76S188.67,28,185,27.9a4.74,4.74,0,0,1-4.5-3.52s2.79-.92,1.68-3.43a2.47,2.47,0,0,0-3.51-1.27s-1.12.82-1,1.68S176,22.42,176,22.42s-1.56-.44-1.67-1.2a17.41,17.41,0,0,1,.25-3s.74-1.67,3.79-1.23a39.33,39.33,0,0,1,9,3.14C188,20.52,192.46,22.39,194.61,26.4Z"/><path class="cls-29" d="M194.44,27a76.24,76.24,0,0,0-10-6.87c-1.7-.85-2.92-1.37-8-2.16-2-.28.55-.82.55-.82a24.64,24.64,0,0,1,7,1.68c3.58,1.21,8.24,4.13,9.89,6.73C194.66,26.83,194.44,27,194.44,27Z"/><path class="cls-30" d="M196.32,28.19a.48.48,0,0,0-.23-.43,1.87,1.87,0,0,0-.81-.37,14,14,0,0,0-1.07,2.72.3.3,0,0,0,.16.35l.8.37a.28.28,0,0,0,.37-.13A6.51,6.51,0,0,0,196.32,28.19Z"/><path class="cls-30" d="M191.67,23.76s-2-2-2.32-1.82.34,1,.34,1S191.68,24.33,191.67,23.76Z"/><path class="cls-30" d="M187.8,21c-.23-.06-.37.25-.31.34a3.37,3.37,0,0,0,.65.47.52.52,0,0,0-.12-.72A.6.6,0,0,0,187.8,21Z"/><path class="cls-2" d="M187.83,23.49c-.23,0-1.7,1.59-1.37,2.68s.45-.08.47-.24v0c0-.16.42-1.45.9-1.65a.4.4,0,0,0,.25-.5A.4.4,0,0,0,187.83,23.49Z"/><path class="cls-2" d="M189.37,24.67s-1.24,1.46-1,2.19.45.22.45.22a3.47,3.47,0,0,1,.37-1.21C189.56,25.23,190.42,24.34,189.37,24.67Z"/><path class="cls-2" d="M191.29,25.86a4.05,4.05,0,0,0-1,1.34c-.24.68.48.49.48.49s.62-1.38.72-1.51S191.86,25.71,191.29,25.86Z"/><path class="cls-1" d="M187.61,23.39c-.22,0-1.69,1.59-1.36,2.68s.45-.08.47-.24v0c0-.15.42-1.44.89-1.64a.41.41,0,0,0,.26-.5A.42.42,0,0,0,187.61,23.39Z"/><path class="cls-1" d="M189.16,24.57s-1.25,1.45-1,2.19.43.2.43.2a3.55,3.55,0,0,1,.39-1.19C189.32,25.13,190.21,24.24,189.16,24.57Z"/><path class="cls-1" d="M191.08,25.76a4,4,0,0,0-1,1.32.43.43,0,0,0,.46.63s.65-1.52.74-1.65S191.65,25.6,191.08,25.76Z"/><path class="cls-11" d="M186.75,26.58c.05-.07-.27-.06-.41-.34-.06-.12-.1-.22-.1-.22a.64.64,0,0,0,.18.5C186.53,26.62,186.71,26.65,186.75,26.58Z"/><path class="cls-11" d="M188.67,27.22c.05-.07-.27,0-.41-.34-.06-.12-.1-.22-.1-.22a.68.68,0,0,0,.18.5C188.44,27.27,188.63,27.29,188.67,27.22Z"/><path class="cls-11" d="M190.76,27.72c0-.07-.48.06-.62-.23-.06-.11-.12-.26-.12-.26a.54.54,0,0,0,.15.48A.71.71,0,0,0,190.76,27.72Z"/><path class="cls-1" d="M169.79,24.4s-3.48.45-3.2,2.34a3.23,3.23,0,0,0,1.28,2.42l.31.09a13.94,13.94,0,0,1-.88-1.61c-.07-.29-.76-1.73.74-2.31l2-.74Z"/><path class="cls-11" d="M178.53,21.52s-2.41,3.4-8.27,3.47l-.66-.28-1.25.58s-.56,1.2,2.43.56,6.31-2.11,7-2.92S179.2,21.64,178.53,21.52Z"/><path class="cls-1" d="M178.14,21.82a1,1,0,0,1,1.38,0l.11.13a1.41,1.41,0,0,1,.09,1.74l-.24-.1s.61-2.1-1.4-1.65Z"/><path class="cls-1" d="M179,24.41a5,5,0,0,0-.11-1.21,1.24,1.24,0,0,0-1-.69c-.49,0-.44.14-.44.14l.41,0a1.3,1.3,0,0,1,.9,1.28c0,1,.26.53.26.53"/><path class="cls-1" d="M178.1,25.06a1.77,1.77,0,0,0-.62-1.76c-.88-.53-.9-.26-.9-.26l-.1.08s1.2.45,1.28.93.16,1.09.16,1.09Z"/><path class="cls-1" d="M171.16,24.6l-.19,0s-1.78.68-1.55,2.14a3.91,3.91,0,0,0,.74,2l.41-.1-.68-1.86a1.81,1.81,0,0,1,1.29-2.07Z"/><path class="cls-1" d="M172.53,28a.87.87,0,0,1-.94-.56,2.52,2.52,0,0,1-.05-2.05c.34-.77.41-.8.41-.8l.11,0a7.89,7.89,0,0,0-.37,1.8c0,.47.25,1.3.8,1.54l0,.12"/><path class="cls-1" d="M175,27l-.31.13a2.06,2.06,0,0,1-.93-1,5,5,0,0,1-.1-1.86l.25-.09a7.32,7.32,0,0,0,0,1.62A5.74,5.74,0,0,0,175,27Z"/><path class="cls-1" d="M175,23.82a3,3,0,0,0,.37,1.53,3.61,3.61,0,0,0,.74.92c.23.17.41-.17.41-.17s-1-.65-1.16-1.4a3.57,3.57,0,0,1-.12-.92Z"/><path class="cls-1" d="M176,23.35s.83,2.52,1.37,2.17l.06-.05a11.09,11.09,0,0,1-.84-1.3,9.53,9.53,0,0,0-.44-.92Z"/><path class="cls-11" d="M178.38,21s.48-.74,1.11-.66a1.88,1.88,0,0,1,1.61,1.11c.17.57-.1,1.52-.3,1.57s-.26-1.06-.26-1.06a4.81,4.81,0,0,0-.49-.82,1.34,1.34,0,0,0-1.13-.22C178.64,21,178.43,21.19,178.38,21Z"/><path class="cls-11" d="M169,24.07a2.55,2.55,0,0,0-1.56-.2,3.69,3.69,0,0,0-2.09,1.73,2.11,2.11,0,0,0-.1,1.67c.24.46.55-.78.55-.78s.93-2.17,1.85-2.19C168.89,24.26,169.28,24.23,169,24.07Z"/><path class="cls-36" d="M165.88,14.47a1.5,1.5,0,0,1-1.45.28c-.21-.09-.12.1-.12.1a.84.84,0,0,0,.78.24,1.07,1.07,0,0,0,.69-.37Z"/><path class="cls-36" d="M165.82,13.64a1.12,1.12,0,0,1-.82.12,1,1,0,0,1-.55-.2s-.31.3.4.39,1.08,0,1-.22S165.82,13.64,165.82,13.64Z"/><path class="cls-36" d="M165.64,12.61s-.15.37-.37.27c-.83-.37-.78-.12-.78-.12s1,.57,1.11.24S165.64,12.61,165.64,12.61Z"/><path class="cls-36" d="M164.83,11.65s.18.34.37.23c.81-.45.2,0,.2,0s-.42.42-.53.1S164.83,11.65,164.83,11.65Z"/><path class="cls-48" d="M211.63,115.55a115.66,115.66,0,0,1,11.65,23.11,9.4,9.4,0,0,0-1.88.93c-4.08,2.65-6.26,5.75-3.61,9.82,2.05,3.14,5.78,2.69,9.24,1.94,9.14,44.88-8.16,97-48.85,123.63A115.18,115.18,0,1,1,122.94,63.61a5.43,5.43,0,0,0,.59,1.15,6.2,6.2,0,0,0,8.59,1.82,6.4,6.4,0,0,0,1.74-1.7,115.49,115.49,0,0,1,42.26,15.88,6.22,6.22,0,0,0,7.25,5h.09A115,115,0,0,1,211.63,115.55Z"/><path class="cls-49" d="M209.4,115.37A112.08,112.08,0,0,1,220.79,138a8.57,8.57,0,0,0-5.24,10.94,8.44,8.44,0,0,0,.91,1.86c2,3.07,4.5,4.45,7.89,3.71,11.31,43.21-7.86,90.74-47.64,116.73A112.61,112.61,0,0,1,28.12,248.4a112.62,112.62,0,0,0,135.93,9.68c39.78-26,55.7-72.74,46.77-116.63-3.38.74-5-.75-7-3.82a8.59,8.59,0,0,1,2.5-11.89,8.44,8.44,0,0,1,1.83-.91,112.61,112.61,0,0,0-11.39-22.59,114.52,114.52,0,0,0-7.23-9.87A112.56,112.56,0,0,1,209.4,115.37Z"/><path class="cls-50" d="M209.59,115.52a106.89,106.89,0,0,1,11.07,22.15,9.67,9.67,0,0,0-1.85.92c-4,2.6-5.9,7.94-3.6,12,2.85,5,10.33,4.45,10.6,3.43,8.33,43.22-18.58,89.78-55.16,114.45C132,294.57,52.8,290.61,19.53,239.67s-17.7-120,34.78-154.32a115.25,115.25,0,0,1,69.35-18.78,5.26,5.26,0,0,0,.56,1.11,6,6,0,0,0,8.38,1.63h0a6.39,6.39,0,0,0,1.71-1.65,110.64,110.64,0,0,1,41.08,14.76,5.71,5.71,0,0,0,.85,2.18,6,6,0,0,0,6.24,2.52A107,107,0,0,1,209.59,115.52Z"/><path class="cls-8" d="M202.54,107.76q-3.71-3.26-7.64-6.15a6.06,6.06,0,0,1-7.14-4.75.44.44,0,0,1,0-.1,113.06,113.06,0,0,0-41.31-15.52,5.9,5.9,0,0,1-1.69,1.65,6.07,6.07,0,0,1-8.41-1.76,6.6,6.6,0,0,1-.58-1.12C112.19,78.4,82.21,78.47,60.9,92.39c-52,34-61,109.46-27,161.52,2.26,3.47,5.83,6.31,8.4,9.44C33,256.91,27,249.53,21.26,240.79A112.59,112.59,0,0,1,123.09,66.88a6.5,6.5,0,0,0,.58,1.11,6.07,6.07,0,0,0,10.1.12,112.86,112.86,0,0,1,41.32,15.52,6.08,6.08,0,0,0,7.08,4.88l.08,0A111.59,111.59,0,0,1,202.54,107.76Z"/><ellipse class="cls-51" cx="129.18" cy="100.13" rx="8.9" ry="10.84" transform="translate(-9.94 185.92) rotate(-69.44)"/><ellipse class="cls-51" cx="79.68" cy="96.69" rx="7.26" ry="5.96" transform="translate(-29.87 35.89) rotate(-21.48)"/><circle class="cls-51" cx="160.6" cy="170.07" r="10.84"/><circle class="cls-51" cx="164.21" cy="219.27" r="10.84"/><circle class="cls-51" cx="200.6" cy="182.55" r="10.84" transform="translate(-11.73 351.32) rotate(-80.78)"/><circle class="cls-51" cx="172.5" cy="133.04" r="6.79"/><circle class="cls-51" cx="117.19" cy="147.29" r="6.79"/><path class="cls-51" d="M187.48,98.4a4.41,4.41,0,0,1,2.6,5.68h0c-.86,2.28-3.17,2.23-5.45,1.39s-3.67-2.2-2.81-4.49A4.41,4.41,0,0,1,187.48,98.4Z"/><ellipse class="cls-52" cx="129.57" cy="99.83" rx="6.16" ry="7.51" transform="translate(-9.41 186.09) rotate(-69.44)"/><ellipse class="cls-52" cx="78.46" cy="97.84" rx="5.03" ry="4.13" transform="translate(-30.38 35.53) rotate(-21.48)"/><circle class="cls-52" cx="160.41" cy="169.94" r="7.51"/><circle class="cls-52" cx="163.19" cy="219.97" r="7.51"/><circle class="cls-52" cx="201.94" cy="184.68" r="7.51"/><circle class="cls-52" cx="172.95" cy="133.21" r="4.7"/><circle class="cls-52" cx="118.76" cy="147.93" r="4.7"/><path class="cls-52" d="M188.31,99.26a3,3,0,0,1,1.79,3.92h0c-.59,1.58-2.2,1.56-3.78,1s-2.53-1.53-1.94-3.11A3,3,0,0,1,188.31,99.26Z"/></g></g></g></g></svg>